<?xml version="1.0" encoding="UTF-8"?>
<svg xmlns="http://www.w3.org/2000/svg" xmlns:xlink="http://www.w3.org/1999/xlink" width="22px" height="22px" viewBox="0 0 22 22" version="1.1">
<g id="surface1">
<path style=" stroke:none;fill-rule:nonzero;fill:rgb(0%,0%,0%);fill-opacity:1;" d="M 15.582031 22.230469 C 10.472656 22.230469 5.359375 22.230469 0.238281 22.230469 C 0.238281 14.914062 0.238281 7.597656 0.238281 0.253906 C 7.535156 0.253906 14.84375 0.253906 22.230469 0.253906 C 22.230469 5.273438 22.230469 10.320312 22.164062 15.546875 C 21.238281 14.910156 20.371094 14.09375 19.492188 13.171875 C 19.480469 10.03125 19.480469 6.996094 19.480469 3.957031 C 13.914062 3.957031 8.484375 3.957031 3.039062 3.957031 C 3.039062 7.925781 3.039062 11.828125 3.039062 15.828125 C 5.035156 15.828125 6.972656 15.828125 8.921875 15.925781 C 8.933594 16.390625 8.933594 16.753906 8.933594 17.1875 C 8.203125 17.1875 7.601562 17.183594 7 17.1875 C 5.9375 17.199219 6.222656 17.894531 6.210938 18.585938 C 8.570312 18.585938 10.808594 18.585938 13.050781 18.675781 C 13.378906 20.070312 14.128906 21.054688 15.277344 21.761719 C 15.417969 21.851562 15.484375 22.070312 15.582031 22.230469 Z M 15.582031 22.230469 "/>
<path style=" stroke:none;fill-rule:nonzero;fill:rgb(86.27451%,87.058824%,86.27451%);fill-opacity:1;" d="M 15.691406 22.230469 C 15.484375 22.070312 15.417969 21.851562 15.277344 21.761719 C 14.128906 21.054688 13.378906 20.070312 13.0625 18.570312 C 13.15625 17.527344 13.246094 16.671875 13.390625 15.765625 C 13.703125 15.300781 13.96875 14.886719 14.296875 14.433594 C 15.554688 13.285156 16.980469 12.925781 18.625 13.121094 C 18.960938 13.210938 19.230469 13.242188 19.503906 13.277344 C 20.371094 14.09375 21.238281 14.910156 22.164062 15.65625 C 22.230469 16.886719 22.230469 18.191406 22.164062 19.53125 C 21.285156 20.371094 20.464844 21.171875 19.65625 21.988281 C 19.625 22.019531 19.6875 22.144531 19.707031 22.230469 C 18.40625 22.230469 17.101562 22.230469 15.691406 22.230469 M 20.078125 18.082031 C 19.664062 17.644531 19.253906 17.210938 18.800781 16.734375 C 19.070312 16.445312 19.300781 16.199219 19.523438 15.953125 C 19.746094 15.710938 19.960938 15.464844 20.179688 15.21875 C 19.488281 14.589844 18.808594 15.023438 17.609375 16.789062 C 18.269531 17.445312 18.9375 18.105469 19.65625 18.820312 C 19.820312 18.621094 19.984375 18.421875 20.078125 18.082031 M 16.414062 18.484375 C 15.996094 19.007812 15.582031 19.53125 15.121094 20.113281 C 15.3125 20.277344 15.515625 20.453125 15.496094 20.4375 C 16.320312 19.773438 17.046875 19.179688 17.761719 18.601562 C 15.863281 16.347656 15.796875 16.3125 15.03125 17.269531 C 15.453125 17.621094 15.890625 17.988281 16.414062 18.484375 Z M 16.414062 18.484375 "/>
<path style=" stroke:none;fill-rule:nonzero;fill:rgb(0%,0%,0%);fill-opacity:1;" d="M 19.820312 22.230469 C 19.6875 22.144531 19.625 22.019531 19.65625 21.988281 C 20.464844 21.171875 21.285156 20.371094 22.164062 19.636719 C 22.230469 20.53125 22.230469 21.351562 22.230469 22.230469 C 21.464844 22.230469 20.695312 22.230469 19.820312 22.230469 Z M 19.820312 22.230469 "/>
<path style=" stroke:none;fill-rule:nonzero;fill:rgb(69.019608%,74.509804%,77.254902%);fill-opacity:1;" d="M 14.230469 14.472656 C 13.96875 14.886719 13.703125 15.300781 13.277344 15.765625 C 11.710938 15.816406 10.3125 15.824219 8.910156 15.828125 C 6.972656 15.828125 5.035156 15.828125 3.039062 15.828125 C 3.039062 11.828125 3.039062 7.925781 3.039062 3.957031 C 8.484375 3.957031 13.914062 3.957031 19.480469 3.957031 C 19.480469 6.996094 19.480469 10.03125 19.492188 13.171875 C 19.230469 13.242188 18.960938 13.210938 18.625 13.011719 C 18.5625 10.492188 18.539062 8.136719 18.574219 5.78125 C 18.585938 5.035156 18.328125 4.789062 17.585938 4.800781 C 15.003906 4.839844 12.417969 4.828125 9.730469 4.824219 C 7.738281 4.816406 5.847656 4.816406 3.964844 4.816406 C 3.964844 8.105469 3.964844 11.210938 3.964844 14.40625 C 6.878906 14.40625 9.726562 14.40625 12.675781 14.414062 C 13.261719 14.441406 13.746094 14.457031 14.230469 14.472656 Z M 14.230469 14.472656 "/>
<path style=" stroke:none;fill-rule:nonzero;fill:rgb(56.470588%,64.313725%,68.235294%);fill-opacity:1;" d="M 8.921875 15.925781 C 10.3125 15.824219 11.710938 15.816406 13.226562 15.816406 C 13.246094 16.671875 13.15625 17.527344 13.054688 18.484375 C 10.808594 18.585938 8.570312 18.585938 6.210938 18.585938 C 6.222656 17.894531 5.9375 17.199219 7 17.1875 C 7.601562 17.183594 8.203125 17.1875 8.933594 17.1875 C 8.933594 16.753906 8.933594 16.390625 8.921875 15.925781 Z M 8.921875 15.925781 "/>
<path style=" stroke:none;fill-rule:nonzero;fill:rgb(47.45098%,52.54902%,79.607843%);fill-opacity:1;" d="M 9.835938 4.835938 C 12.417969 4.828125 15.003906 4.839844 17.585938 4.800781 C 18.328125 4.789062 18.585938 5.035156 18.574219 5.78125 C 18.539062 8.136719 18.5625 10.492188 18.5625 12.957031 C 16.980469 12.925781 15.554688 13.285156 14.296875 14.433594 C 13.746094 14.457031 13.261719 14.441406 12.667969 14.332031 C 11.652344 11.101562 10.742188 7.96875 9.835938 4.835938 Z M 9.835938 4.835938 "/>
<path style=" stroke:none;fill-rule:nonzero;fill:rgb(23.921569%,56.470588%,25.490196%);fill-opacity:1;" d="M 20.113281 18.152344 C 19.984375 18.421875 19.820312 18.621094 19.65625 18.820312 C 18.9375 18.105469 18.269531 17.445312 17.609375 16.789062 C 18.808594 15.023438 19.488281 14.589844 20.179688 15.21875 C 19.960938 15.464844 19.746094 15.710938 19.523438 15.953125 C 19.300781 16.199219 19.070312 16.445312 18.800781 16.734375 C 19.253906 17.210938 19.664062 17.644531 20.113281 18.152344 Z M 20.113281 18.152344 "/>
<path style=" stroke:none;fill-rule:nonzero;fill:rgb(23.137255%,56.078431%,24.705882%);fill-opacity:1;" d="M 16.371094 18.417969 C 15.890625 17.988281 15.453125 17.621094 15.03125 17.269531 C 15.796875 16.3125 15.863281 16.347656 17.761719 18.601562 C 17.046875 19.179688 16.320312 19.773438 15.496094 20.4375 C 15.515625 20.453125 15.3125 20.277344 15.121094 20.113281 C 15.582031 19.53125 15.996094 19.007812 16.371094 18.417969 Z M 16.371094 18.417969 "/>
<path style=" stroke:none;fill-rule:nonzero;fill:rgb(18.823529%,24.705882%,62.352941%);fill-opacity:1;" d="M 9.730469 4.824219 C 10.742188 7.96875 11.652344 11.101562 12.566406 14.320312 C 9.726562 14.40625 6.878906 14.40625 3.964844 14.40625 C 3.964844 11.210938 3.964844 8.105469 3.964844 4.816406 C 5.847656 4.816406 7.738281 4.816406 9.730469 4.824219 Z M 9.730469 4.824219 "/>
</g>
</svg>
