<svg xmlns="http://www.w3.org/2000/svg" version="1.1" xmlns:xlink="http://www.w3.org/1999/xlink" xmlns:svgjs="http://svgjs.com/svgjs" width="24" height="24" x="0" y="0" viewBox="0 0 512 512" style="enable-background:new 0 0 512 512" xml:space="preserve" class=""><g><path fill="#33c5fe" fill-rule="evenodd" d="M256 0c141.385 0 256 114.615 256 256S397.385 512 256 512 0 397.385 0 256 114.615 0 256 0zm1.484 239.162 39.087-24.979 41.736-27.7-80.823-53.633zm80.823 86.349-41.736-27.7-39.087-24.979v106.322zm-31.443-95.66 53.579-35.551a9.367 9.367 0 0 0 0-15.621l-107.155-71.118a9.375 9.375 0 0 0-14.554 7.816V238.6l-76.945-49.165a9.374 9.374 0 1 0-10.1 15.8L231.133 256l-79.441 50.766a9.375 9.375 0 0 0 10.1 15.8l76.942-49.166v123.227a9.37 9.37 0 0 0 14.554 7.81l107.155-71.115a9.367 9.367 0 0 0 0-15.621l-53.579-35.555c-.038-.029-.085-.058-.132-.088L265.956 256l40.776-26.056a.868.868 0 0 0 .132-.093z" data-original="#0291f7" class=""></path></g></svg>
