<svg xmlns="http://www.w3.org/2000/svg" version="1.1" xmlns:xlink="http://www.w3.org/1999/xlink" xmlns:svgjs="http://svgjs.com/svgjs" width="24" height="24" x="0" y="0" viewBox="0 0 511.999 511.999" style="enable-background:new 0 0 24 24" class=""><g><path d="M313.922 98.677c19.682-15.899 24.138-32.895 24.409-44.354.662-27.877-21.351-48.277-23.864-50.51-6.224-5.536-15.758-4.978-21.295 1.247-5.536 6.225-4.978 15.758 1.247 21.295.141.126 14.087 13.174 13.753 27.253-.178 7.501-4.498 14.567-13.207 21.602-19.682 15.899-24.138 32.895-24.409 44.354-.663 27.877 21.351 48.277 23.863 50.511a15.091 15.091 0 0 0 10.058 3.824c4.156 0 8.293-1.7 11.267-5.045 5.536-6.225 5.008-15.732-1.217-21.268-3.959-3.6-14.157-15.543-13.81-27.42.219-7.459 4.538-14.489 13.205-21.489zM218.217 98.677c19.682-15.899 24.138-32.895 24.409-44.354.662-27.877-21.351-48.277-23.864-50.51-6.223-5.536-15.758-4.978-21.295 1.247-5.536 6.225-4.978 15.758 1.247 21.295.141.126 14.087 13.174 13.753 27.253-.178 7.501-4.498 14.567-13.207 21.602-19.682 15.899-24.138 32.895-24.409 44.354-.662 27.877 21.351 48.277 23.863 50.511a15.091 15.091 0 0 0 10.058 3.824c4.156 0 8.293-1.7 11.267-5.045 5.536-6.225 5.008-15.732-1.217-21.268-3.959-3.6-14.157-15.543-13.81-27.42.219-7.459 4.538-14.489 13.205-21.489zM434.157 246.148h-17.852v-11.062c0-8.33-6.753-15.084-15.084-15.084H16.247c-8.33 0-15.084 6.753-15.084 15.084v79.608c0 70.343 38.935 132.196 97.389 167.138H16.256c-8.33 0-15.084 6.753-15.084 15.084S7.924 512 16.256 512h384.966c8.33 0 15.084-6.753 15.084-15.084s-6.753-15.084-15.084-15.084h-82.305c33.24-19.87 60.167-48.439 77.211-82.329h38.03c42.28 0 76.678-34.398 76.678-76.678 0-42.28-34.399-76.677-76.679-76.677zm-48.019 68.546c-.001 92.16-79.584 167.138-177.404 167.138S31.331 406.854 31.331 314.694V250.17h354.806v64.524zm48.019 54.642h-25.956a187.72 187.72 0 0 0 8.104-54.642v-38.38h17.852c25.646 0 46.511 20.865 46.511 46.511s-20.865 46.511-46.511 46.511zM122.512 98.678c19.682-15.899 24.138-32.895 24.409-44.354.662-27.877-21.351-48.277-23.864-50.51-6.224-5.536-15.758-4.978-21.295 1.247-5.536 6.224-4.978 15.758 1.247 21.295.141.126 14.087 13.174 13.753 27.253-.178 7.501-4.498 14.567-13.207 21.602-19.682 15.899-24.138 32.895-24.409 44.354-.661 27.876 21.352 48.276 23.864 50.51a15.027 15.027 0 0 0 10.019 3.813 15.05 15.05 0 0 0 11.277-5.06c5.536-6.225 4.978-15.758-1.247-21.295-.141-.126-14.087-13.174-13.753-27.253.176-7.501 4.496-14.568 13.206-21.602z" fill="#000000" data-original="#000000" class=""></path></g></svg>
