<svg xmlns="http://www.w3.org/2000/svg" version="1.1" xmlns:xlink="http://www.w3.org/1999/xlink" xmlns:svgjs="http://svgjs.com/svgjs" width="512" height="512" x="0" y="0" viewBox="0 0 512 512" style="enable-background:new 0 0 512 512" xml:space="preserve" class=""><g><circle cx="256" cy="256" r="256" fill="#000000" data-original="#000000" class=""></circle><path fill="#ff0000" d="M454.59 225.457c0-4.681 3.76-8.518 8.365-8.518 2.225 0 4.297.921 5.909 2.456 1.612 1.612 2.456 3.76 2.456 5.986s-.844 4.374-2.456 5.986-3.684 2.532-5.909 2.532c-4.605 0-8.365-3.761-8.365-8.442zm-.691 0c0 5.065 4.067 9.209 9.132 9.209 2.456 0 4.681-.921 6.369-2.686s2.686-4.067 2.686-6.523-.921-4.758-2.686-6.523-3.991-2.686-6.369-2.686c-5.064 0-9.132 4.144-9.132 9.209zm5.679 5.449h1.305v-4.297h2.916c.46 0 .844 0 1.151.153.384.23.614.691.691 1.305l.154 1.688v.767c.077.153.077.23.153.307h1.612v-.23c-.23-.077-.307-.307-.384-.614-.077-.153-.077-.46-.077-.844l-.077-1.305c0-.614-.154-.998-.307-1.228-.23-.23-.537-.46-.921-.614.46-.23.767-.537.998-.921.23-.384.307-.844.307-1.458 0-1.151-.46-1.919-1.305-2.379-.46-.23-1.074-.307-1.765-.307h-4.374zm1.228-5.449v-3.453h3.07c.46 0 .844.077 1.074.23.46.23.691.767.691 1.458s-.154 1.151-.537 1.381c-.307.23-.767.384-1.381.384zM97.209 238.119l-37.296 58.63h25.478l35.915-56.021zm153.558-1.304v-21.718h-72.52c-9.9.614-14.197 5.372-17.42 8.748-3.453 3.607-5.372 11.204-5.372 11.204V215.25h-38.601c-2.916 0-5.679 1.228-7.751 4.144-2.149 2.839-10.974 17.42-10.974 17.42h152.638zm197.223 0v-21.718h-77.585c-9.823.614-14.197 5.372-17.42 8.748-3.453 3.607-5.372 11.204-5.372 11.204v1.765H447.99zm-171.745-21.641h-21.718v21.641h21.718zm71.138 0h-21.641v21.641h21.641zm0 29.468-21.334-1.305v25.094s-.077 7.214-7.06 7.214H282.46s-6.216-.537-6.216-7.137V239.96l-21.487-1.535v38.447c3.453 18.418 20.106 19.876 20.106 19.876s1.688.077 1.995.153h49.498s21.18-1.688 21.18-22.101zm-214.029 52.107h101.451c17.65-3.53 19.492-19.646 19.492-19.646.844-4.758.384-8.672.384-8.672-.537-3.223-6.676-17.497-19.876-18.725-7.904-.767-78.275-6.369-78.275-6.369 1.381 7.06 4.528 10.667 6.676 12.662 4.911 4.681 12.662 6.062 12.662 6.062l54.256 4.528c1.688.077 4.835.537 4.758 4.681 0 .537-.46 4.144-4.451 4.144h-75.896v-32.231l-21.104-1.535c-.077.002-.077 55.101-.077 55.101zm214.183.154h77.661c19.492-1.151 22.255-19.646 22.255-19.646.691-4.835.154-8.825.154-8.825-.537-4.374-6.753-17.574-20.029-18.878-7.828-.767-78.659-4.911-78.659-4.911 2.072 7.29 4.911 9.516 7.06 11.511 4.911 4.758 12.202 5.832 12.202 5.832 1.842.153 54.793 4.604 54.793 4.604 1.688.077 5.142.23 5.142 4.374 0 1.228-.614 2.532-1.381 3.223 0 0-1.842.998-3.607.998h-75.359z" data-original="#ffffff" class=""></path></g></svg>