<svg xmlns="http://www.w3.org/2000/svg" version="1.1" xmlns:xlink="http://www.w3.org/1999/xlink" xmlns:svgjs="http://svgjs.com/svgjs" width="24" height="24" x="0" y="0" viewBox="0 0 512 512" style="enable-background:new 0 0 512 512" xml:space="preserve" class=""><g><linearGradient id="a" x1="256" x2="256" y1="0" y2="512" gradientUnits="userSpaceOnUse"><stop offset="0" stop-color="#01f1fe"></stop><stop offset="1" stop-color="#4fadfe"></stop></linearGradient><path fill="url(#a)" fill-rule="evenodd" d="M256 512C114.841 512 0 397.158 0 256S114.841 0 256 0s256 114.841 256 256-114.841 256-256 256zm25.033-158.689c0-13.803-11.23-25.033-25.033-25.033s-25.033 11.23-25.033 25.033 11.23 25.033 25.033 25.033 25.033-11.23 25.033-25.033zM256 263.404c27.378 0 52.929 12.254 70.103 33.62 4.581 5.699 3.676 14.035-2.025 18.616a13.193 13.193 0 0 1-8.288 2.921 13.217 13.217 0 0 1-10.328-4.946c-12.121-15.079-30.149-23.728-49.462-23.728-19.312 0-37.341 8.649-49.462 23.729-4.582 5.7-12.917 6.606-18.616 2.025-5.7-4.581-6.606-12.916-2.025-18.616 17.174-21.367 42.725-33.621 70.103-33.621zm0-64.874c-44.154 0-86.324 18.943-115.694 51.974-4.86 5.465-4.369 13.835 1.096 18.694 5.465 4.86 13.835 4.369 18.694-1.096 24.35-27.383 59.306-43.089 95.904-43.089s71.554 15.705 95.904 43.089a13.206 13.206 0 0 0 9.9 4.443c3.129 0 6.272-1.103 8.795-3.347 5.465-4.859 5.955-13.229 1.096-18.694-29.372-33.03-71.541-51.974-115.695-51.974zm160.703 24.58c-5.374 4.96-13.751 4.623-18.711-.752-36.487-39.54-88.242-62.218-141.993-62.218s-105.506 22.678-141.992 62.218a13.21 13.21 0 0 1-9.735 4.262 13.197 13.197 0 0 1-8.977-3.51c-5.375-4.96-5.711-13.336-.752-18.711 20.365-22.07 44.531-39.456 71.827-51.673 28.268-12.653 58.423-19.068 89.629-19.068s61.361 6.415 89.629 19.068c27.296 12.217 51.462 29.603 71.827 51.673 4.959 5.374 4.622 13.75-.752 18.711z" clip-rule="evenodd" data-original="url(#a)" class=""></path></g></svg>
