<?xml version="1.0" encoding="UTF-8"?>
<svg xmlns="http://www.w3.org/2000/svg" xmlns:xlink="http://www.w3.org/1999/xlink" width="22px" height="22px" viewBox="0 0 22 22" version="1.1">
<g id="surface1">
<path style=" stroke:none;fill-rule:evenodd;fill:rgb(80%,70.588235%,61.568627%);fill-opacity:1;" d="M 10.640625 0.402344 C 10.703125 0.425781 10.777344 0.425781 10.804688 0.394531 C 10.832031 0.367188 10.78125 0.347656 10.691406 0.351562 C 10.59375 0.355469 10.570312 0.375 10.640625 0.402344 M 3.847656 0.78125 L 3.566406 1.046875 L 3.84375 0.863281 C 3.996094 0.761719 4.144531 0.644531 4.171875 0.597656 C 4.269531 0.4375 4.121094 0.519531 3.847656 0.78125 M 3.050781 1.203125 C 2.941406 1.25 2.925781 1.277344 3.007812 1.277344 C 3.078125 1.277344 3.214844 1.242188 3.308594 1.203125 C 3.417969 1.15625 3.433594 1.128906 3.351562 1.128906 C 3.28125 1.128906 3.144531 1.164062 3.050781 1.203125 M 6.445312 1.765625 C 6.445312 1.824219 6.386719 1.917969 6.316406 1.976562 C 6.210938 2.0625 6.1875 2.058594 6.1875 1.945312 C 6.1875 1.730469 5.933594 1.777344 5.734375 2.027344 C 5.582031 2.222656 5.550781 2.234375 5.484375 2.113281 C 5.398438 1.960938 5.109375 1.929688 5.027344 2.0625 C 5 2.105469 5.023438 2.230469 5.078125 2.335938 L 5.183594 2.527344 L 4.945312 2.371094 C 4.8125 2.285156 4.679688 2.25 4.652344 2.292969 C 4.621094 2.332031 4.492188 2.433594 4.367188 2.515625 C 4.238281 2.597656 4.066406 2.808594 3.984375 2.984375 C 3.902344 3.164062 3.808594 3.328125 3.777344 3.351562 C 3.6875 3.421875 3.484375 3.820312 3.503906 3.890625 C 3.515625 3.925781 3.484375 3.953125 3.4375 3.953125 C 3.390625 3.953125 3.351562 4.03125 3.351562 4.125 C 3.351562 4.21875 3.3125 4.296875 3.265625 4.296875 C 3.148438 4.296875 3.15625 4.609375 3.28125 4.839844 C 3.367188 5.003906 3.363281 5.015625 3.246094 4.914062 C 3.125 4.816406 3.113281 4.847656 3.144531 5.171875 C 3.164062 5.375 3.21875 5.554688 3.265625 5.570312 C 3.3125 5.585938 3.328125 5.640625 3.296875 5.695312 C 3.257812 5.753906 3.289062 5.765625 3.378906 5.730469 C 3.460938 5.703125 3.523438 5.703125 3.523438 5.738281 C 3.523438 5.773438 3.660156 5.808594 3.832031 5.816406 C 4.226562 5.835938 4.957031 6.371094 4.96875 6.652344 C 4.96875 6.691406 5.019531 6.757812 5.085938 6.796875 C 5.160156 6.84375 5.199219 7.046875 5.195312 7.410156 C 5.191406 7.878906 5.132812 8.074219 4.742188 8.894531 C 4.496094 9.414062 4.210938 9.988281 4.113281 10.171875 C 3.960938 10.457031 3.953125 10.535156 4.042969 10.707031 C 4.101562 10.816406 4.179688 10.890625 4.21875 10.867188 C 4.253906 10.84375 4.386719 10.871094 4.511719 10.929688 C 4.6875 11.007812 4.753906 11.007812 4.800781 10.929688 C 4.835938 10.875 5.039062 10.804688 5.253906 10.777344 C 5.570312 10.734375 5.65625 10.75 5.699219 10.863281 C 5.734375 10.957031 5.703125 11.023438 5.605469 11.054688 C 5.058594 11.226562 4.640625 11.59375 4.640625 11.894531 C 4.640625 12.144531 4.871094 12.300781 5.140625 12.234375 C 5.246094 12.203125 5.445312 12.261719 5.625 12.371094 C 5.828125 12.5 6.03125 12.550781 6.242188 12.53125 C 6.421875 12.515625 6.570312 12.546875 6.589844 12.601562 C 6.640625 12.742188 6.339844 12.792969 5.757812 12.742188 C 5.308594 12.699219 5.246094 12.710938 5.289062 12.832031 C 5.320312 12.90625 5.464844 12.980469 5.613281 13 C 5.875 13.027344 5.871094 13.03125 5.515625 13.101562 C 5.265625 13.148438 5.160156 13.207031 5.191406 13.285156 C 5.214844 13.34375 5.1875 13.410156 5.128906 13.433594 C 5.074219 13.453125 5.054688 13.5 5.089844 13.535156 C 5.125 13.574219 5.207031 13.558594 5.269531 13.503906 C 5.363281 13.429688 5.425781 13.449219 5.550781 13.589844 C 5.714844 13.769531 5.710938 13.773438 5.527344 13.714844 C 5.398438 13.675781 5.234375 13.726562 4.988281 13.898438 C 4.667969 14.117188 4.644531 14.160156 4.6875 14.4375 C 4.714844 14.601562 4.804688 14.808594 4.886719 14.890625 C 5.078125 15.085938 6.082031 15.398438 6.152344 15.285156 C 6.183594 15.234375 6.246094 15.238281 6.3125 15.292969 C 6.375 15.34375 6.484375 15.363281 6.558594 15.332031 C 6.660156 15.296875 6.6875 15.324219 6.664062 15.441406 C 6.636719 15.585938 6.6875 15.601562 7.164062 15.578125 C 7.765625 15.546875 7.859375 15.53125 8.191406 15.394531 C 8.503906 15.269531 8.488281 15.261719 8.460938 15.515625 C 8.445312 15.636719 8.335938 15.828125 8.214844 15.941406 C 7.964844 16.171875 7.820312 16.492188 7.820312 16.800781 C 7.820312 16.910156 7.773438 17.023438 7.710938 17.050781 C 7.625 17.089844 7.625 17.113281 7.710938 17.152344 C 7.773438 17.179688 7.820312 17.238281 7.820312 17.285156 C 7.820312 17.332031 7.78125 17.34375 7.734375 17.316406 C 7.6875 17.289062 7.648438 17.300781 7.648438 17.347656 C 7.648438 17.394531 7.695312 17.453125 7.757812 17.476562 C 7.828125 17.507812 7.773438 17.605469 7.59375 17.761719 C 7.367188 17.96875 7.339844 18.03125 7.414062 18.195312 C 7.519531 18.425781 7.664062 18.441406 7.957031 18.25 C 8.269531 18.042969 8.398438 18.214844 8.121094 18.476562 C 7.957031 18.632812 7.90625 18.765625 7.90625 19.054688 C 7.90625 19.261719 7.949219 19.511719 8 19.609375 C 8.074219 19.75 8.070312 19.773438 7.984375 19.71875 C 7.90625 19.671875 7.894531 19.695312 7.9375 19.804688 C 7.980469 19.917969 7.960938 19.945312 7.867188 19.90625 C 7.789062 19.878906 7.699219 19.925781 7.648438 20.027344 C 7.597656 20.121094 7.515625 20.195312 7.460938 20.195312 C 7.410156 20.195312 7.300781 20.273438 7.214844 20.371094 C 7.128906 20.46875 6.980469 20.554688 6.882812 20.5625 C 6.785156 20.570312 6.703125 20.613281 6.703125 20.65625 C 6.703125 20.703125 6.679688 20.71875 6.652344 20.691406 C 6.605469 20.644531 6.355469 20.835938 5.855469 21.3125 C 5.730469 21.429688 5.578125 21.511719 5.511719 21.5 C 5.449219 21.484375 5.421875 21.511719 5.453125 21.5625 C 5.484375 21.613281 5.382812 21.730469 5.226562 21.828125 L 4.941406 22 L 11.976562 22 L 19.011719 21.996094 L 18.960938 21.796875 C 18.917969 21.625 18.953125 21.585938 19.222656 21.5 C 19.582031 21.390625 19.695312 21.429688 19.617188 21.628906 C 19.582031 21.726562 19.597656 21.75 19.667969 21.707031 C 19.726562 21.667969 19.832031 21.71875 19.917969 21.828125 C 20.042969 21.976562 20.144531 22.007812 20.484375 21.984375 L 20.898438 21.957031 L 20.507812 21.710938 C 20.296875 21.578125 19.996094 21.355469 19.839844 21.21875 C 19.6875 21.082031 19.519531 20.96875 19.472656 20.972656 C 19.316406 20.976562 19.078125 21.195312 19.144531 21.273438 C 19.179688 21.3125 19.101562 21.28125 18.972656 21.199219 C 18.675781 21.011719 18.644531 21.015625 18.671875 21.238281 C 18.6875 21.375 18.617188 21.453125 18.40625 21.542969 C 18.246094 21.609375 18.144531 21.621094 18.175781 21.574219 C 18.203125 21.523438 18.164062 21.484375 18.082031 21.484375 C 17.945312 21.484375 17.945312 21.472656 18.078125 21.328125 C 18.242188 21.144531 18.257812 21.054688 18.128906 21.054688 C 18.078125 21.054688 18.0625 21.09375 18.089844 21.140625 C 18.117188 21.1875 18.082031 21.226562 18.007812 21.226562 C 17.839844 21.226562 17.839844 21.1875 18.011719 21.019531 C 18.132812 20.894531 18.128906 20.882812 17.960938 20.882812 C 17.609375 20.882812 17.125 20.441406 16.902344 19.921875 L 16.6875 19.429688 L 16.425781 19.527344 C 16.09375 19.65625 15.738281 19.484375 15.621094 19.144531 C 15.574219 19.011719 15.507812 18.925781 15.46875 18.949219 C 15.390625 18.996094 15.296875 18.792969 15.296875 18.566406 C 15.296875 18.484375 15.179688 18.257812 15.039062 18.058594 C 14.898438 17.863281 14.78125 17.644531 14.78125 17.574219 C 14.78125 17.503906 14.742188 17.445312 14.695312 17.445312 C 14.648438 17.445312 14.609375 17.386719 14.609375 17.316406 C 14.609375 17.246094 14.570312 17.1875 14.523438 17.1875 C 14.476562 17.1875 14.4375 17.144531 14.4375 17.09375 C 14.4375 16.988281 13.941406 16.5 13.835938 16.5 C 13.800781 16.5 13.726562 16.445312 13.667969 16.375 C 13.613281 16.308594 13.511719 16.273438 13.441406 16.300781 C 13.375 16.324219 13.320312 16.300781 13.320312 16.242188 C 13.320312 16.183594 13.261719 16.160156 13.191406 16.1875 C 13.027344 16.25 13.027344 16.203125 13.203125 15.9375 C 13.277344 15.820312 13.390625 15.726562 13.449219 15.726562 C 13.679688 15.726562 13.683594 15.261719 13.457031 15.105469 C 13.394531 15.0625 13.398438 15.042969 13.46875 15.039062 C 13.695312 15.039062 13.566406 14.800781 13.324219 14.761719 C 13.1875 14.742188 13.089844 14.753906 13.113281 14.789062 C 13.132812 14.828125 13.117188 14.875 13.074219 14.902344 C 12.96875 14.96875 12.777344 14.722656 12.847656 14.609375 C 12.878906 14.558594 12.871094 14.523438 12.832031 14.53125 C 12.664062 14.5625 12.597656 14.515625 12.710938 14.445312 C 12.816406 14.378906 12.8125 14.347656 12.699219 14.234375 C 12.628906 14.160156 12.542969 13.964844 12.511719 13.796875 C 12.480469 13.628906 12.414062 13.492188 12.367188 13.492188 C 12.316406 13.492188 12.304688 13.453125 12.335938 13.402344 C 12.363281 13.355469 12.320312 13.140625 12.230469 12.925781 C 12.09375 12.589844 12.046875 12.546875 11.871094 12.589844 C 11.710938 12.628906 11.675781 12.613281 11.71875 12.507812 C 11.875 12.125 11.878906 12.070312 11.738281 12.238281 C 11.664062 12.332031 11.589844 12.390625 11.578125 12.367188 C 11.480469 12.238281 11.34375 11.820312 11.34375 11.667969 C 11.34375 11.488281 11.347656 11.484375 11.46875 11.648438 C 11.582031 11.796875 11.597656 11.796875 11.597656 11.671875 C 11.601562 11.589844 11.640625 11.5 11.691406 11.46875 C 11.75 11.433594 11.761719 11.492188 11.726562 11.625 C 11.691406 11.773438 11.714844 11.851562 11.808594 11.886719 C 11.90625 11.925781 11.945312 11.890625 11.945312 11.769531 C 11.945312 11.675781 11.972656 11.609375 12.007812 11.621094 C 12.09375 11.644531 12.546875 11.34375 12.546875 11.265625 C 12.546875 11.125 11.945312 10.925781 11.667969 10.96875 C 11.433594 11.007812 11.320312 10.96875 11.09375 10.777344 C 10.851562 10.574219 10.816406 10.5 10.855469 10.257812 C 10.882812 10.101562 10.863281 9.949219 10.816406 9.917969 C 10.714844 9.855469 10.789062 9.339844 10.9375 9.105469 C 11.015625 8.980469 11.003906 8.914062 10.886719 8.78125 C 10.746094 8.628906 10.746094 8.585938 10.863281 8.238281 C 10.984375 7.890625 10.984375 7.851562 10.832031 7.691406 C 10.742188 7.597656 10.519531 7.355469 10.339844 7.160156 C 10.023438 6.820312 9.96875 6.792969 9.339844 6.714844 C 8.972656 6.671875 8.402344 6.632812 8.070312 6.636719 C 7.738281 6.636719 7.445312 6.613281 7.414062 6.585938 C 7.386719 6.554688 7.3125 6.574219 7.253906 6.625 C 7.179688 6.683594 7.089844 6.6875 6.996094 6.632812 C 6.863281 6.5625 6.875 6.535156 7.082031 6.398438 C 7.257812 6.285156 7.480469 6.25 8.003906 6.253906 C 8.722656 6.261719 9.5625 6.425781 9.488281 6.546875 C 9.445312 6.613281 9.613281 6.652344 9.882812 6.636719 C 9.953125 6.632812 10.035156 6.671875 10.066406 6.71875 C 10.136719 6.839844 10.3125 6.730469 10.3125 6.566406 C 10.3125 6.496094 10.371094 6.320312 10.445312 6.179688 C 10.617188 5.851562 10.554688 5.660156 10.226562 5.515625 C 10.085938 5.449219 9.984375 5.375 10.003906 5.34375 C 10.023438 5.3125 9.902344 5.148438 9.734375 4.984375 C 9.566406 4.820312 9.460938 4.738281 9.496094 4.804688 C 9.542969 4.886719 9.535156 4.90625 9.460938 4.859375 C 9.402344 4.824219 9.375 4.746094 9.398438 4.683594 C 9.480469 4.472656 8.859375 3.878906 8.265625 3.597656 C 7.570312 3.265625 7.375 3.0625 7.007812 2.269531 C 6.828125 1.878906 6.675781 1.660156 6.585938 1.660156 C 6.507812 1.660156 6.445312 1.707031 6.445312 1.765625 M 15.769531 2.492188 C 15.796875 2.539062 15.839844 2.578125 15.859375 2.578125 C 15.882812 2.578125 15.898438 2.539062 15.898438 2.492188 C 15.898438 2.445312 15.859375 2.40625 15.808594 2.40625 C 15.757812 2.40625 15.742188 2.445312 15.769531 2.492188 M 16.15625 2.835938 C 16.15625 2.882812 16.195312 2.921875 16.246094 2.921875 C 16.296875 2.921875 16.3125 2.882812 16.285156 2.835938 C 16.257812 2.789062 16.214844 2.75 16.195312 2.75 C 16.171875 2.75 16.15625 2.789062 16.15625 2.835938 M 16.589844 3.699219 C 16.589844 3.769531 16.652344 3.902344 16.726562 3.996094 C 16.859375 4.164062 16.859375 4.160156 16.800781 3.953125 C 16.726562 3.691406 16.585938 3.523438 16.589844 3.699219 M 17.851562 3.753906 C 17.914062 3.777344 18.007812 3.777344 18.070312 3.753906 C 18.128906 3.726562 18.078125 3.707031 17.960938 3.707031 C 17.84375 3.707031 17.792969 3.726562 17.851562 3.753906 M 18.648438 3.816406 C 18.648438 3.832031 18.707031 3.871094 18.78125 3.898438 C 18.859375 3.929688 18.894531 3.914062 18.863281 3.867188 C 18.8125 3.785156 18.648438 3.746094 18.648438 3.816406 M 19.269531 4.242188 C 19.351562 4.304688 19.394531 4.382812 19.363281 4.414062 C 19.332031 4.445312 19.351562 4.46875 19.40625 4.46875 C 19.460938 4.46875 19.507812 4.4375 19.507812 4.398438 C 19.507812 4.300781 19.316406 4.125 19.210938 4.128906 C 19.160156 4.128906 19.1875 4.179688 19.269531 4.242188 M 19.664062 4.613281 C 19.726562 4.636719 19.800781 4.636719 19.828125 4.605469 C 19.855469 4.578125 19.804688 4.558594 19.714844 4.5625 C 19.617188 4.566406 19.59375 4.585938 19.664062 4.613281 M 20.453125 5.050781 C 20.453125 5.09375 20.535156 5.203125 20.636719 5.292969 C 20.820312 5.457031 20.820312 5.457031 20.722656 5.269531 C 20.613281 5.058594 20.453125 4.929688 20.453125 5.050781 M 20.976562 5.816406 C 20.976562 5.902344 21.015625 6.050781 21.054688 6.144531 C 21.117188 6.289062 21.128906 6.273438 21.132812 6.042969 C 21.136719 5.890625 21.101562 5.742188 21.054688 5.714844 C 21.007812 5.6875 20.972656 5.730469 20.976562 5.816406 M 0.890625 6.140625 C 0.949219 6.265625 1.019531 6.320312 1.066406 6.273438 C 1.113281 6.226562 1.101562 6.140625 1.035156 6.0625 C 0.863281 5.859375 0.777344 5.90625 0.890625 6.140625 M 10.519531 6.410156 C 10.449219 6.582031 10.40625 6.765625 10.425781 6.820312 C 10.445312 6.875 10.511719 6.800781 10.566406 6.660156 C 10.621094 6.519531 10.730469 6.335938 10.804688 6.253906 C 10.929688 6.113281 10.929688 6.101562 10.792969 6.101562 C 10.707031 6.101562 10.59375 6.226562 10.519531 6.410156 M 3.128906 6.480469 C 3.097656 6.554688 3.039062 6.59375 2.996094 6.566406 C 2.949219 6.539062 2.859375 6.5625 2.789062 6.621094 C 2.691406 6.699219 2.683594 6.753906 2.757812 6.84375 C 2.832031 6.933594 2.832031 6.960938 2.746094 6.960938 C 2.683594 6.960938 2.65625 6.984375 2.683594 7.011719 C 2.710938 7.039062 2.855469 6.996094 3.003906 6.921875 C 3.269531 6.785156 3.628906 6.808594 4.285156 7.007812 C 4.472656 7.066406 4.476562 7.058594 4.371094 6.886719 C 4.308594 6.785156 4.210938 6.703125 4.15625 6.703125 C 4.097656 6.703125 4.039062 6.667969 4.023438 6.625 C 4.007812 6.582031 3.855469 6.53125 3.683594 6.507812 C 3.511719 6.484375 3.328125 6.441406 3.273438 6.40625 C 3.222656 6.375 3.15625 6.410156 3.128906 6.480469 M 10.769531 6.679688 C 10.738281 6.765625 10.699219 6.871094 10.679688 6.917969 C 10.660156 6.964844 10.703125 6.929688 10.777344 6.835938 C 10.914062 6.671875 10.953125 6.53125 10.867188 6.53125 C 10.84375 6.53125 10.796875 6.597656 10.769531 6.679688 M 2.835938 6.792969 C 2.835938 6.84375 2.875 6.859375 2.921875 6.832031 C 2.96875 6.804688 3.007812 6.761719 3.007812 6.742188 C 3.007812 6.71875 2.96875 6.703125 2.921875 6.703125 C 2.875 6.703125 2.835938 6.742188 2.835938 6.792969 M 0.867188 6.925781 C 0.871094 7.023438 0.890625 7.046875 0.917969 6.976562 C 0.941406 6.914062 0.941406 6.839844 0.910156 6.8125 C 0.882812 6.785156 0.863281 6.835938 0.867188 6.925781 M 20.753906 6.960938 C 20.78125 7.007812 20.824219 7.046875 20.84375 7.046875 C 20.867188 7.046875 20.882812 7.007812 20.882812 6.960938 C 20.882812 6.914062 20.84375 6.875 20.792969 6.875 C 20.742188 6.875 20.726562 6.914062 20.753906 6.960938 M 3.300781 7.0625 C 3.273438 7.101562 3.210938 7.109375 3.164062 7.078125 C 3.109375 7.046875 3.089844 7.074219 3.109375 7.140625 C 3.136719 7.21875 3.300781 7.265625 3.566406 7.277344 C 3.878906 7.289062 4.082031 7.363281 4.367188 7.5625 C 4.574219 7.710938 4.757812 7.816406 4.773438 7.804688 C 4.808594 7.765625 4.632812 7.554688 4.359375 7.3125 C 4.121094 7.101562 3.382812 6.925781 3.300781 7.0625 M 0.949219 7.449219 C 0.945312 7.507812 1.03125 7.644531 1.140625 7.753906 C 1.246094 7.867188 1.289062 7.898438 1.238281 7.824219 C 1.183594 7.75 1.097656 7.613281 1.046875 7.519531 C 0.992188 7.425781 0.949219 7.394531 0.949219 7.449219 M 3.203125 7.625 C 3.121094 7.652344 3.128906 7.695312 3.226562 7.792969 C 3.382812 7.949219 3.488281 7.890625 3.382812 7.710938 C 3.339844 7.644531 3.261719 7.605469 3.203125 7.625 M 7.320312 7.867188 C 7.042969 7.984375 6.988281 8.160156 7.203125 8.230469 C 7.261719 8.25 7.285156 8.210938 7.257812 8.136719 C 7.222656 8.054688 7.296875 7.980469 7.484375 7.917969 C 7.859375 7.785156 7.90625 7.792969 7.90625 7.984375 C 7.90625 8.328125 8 8.421875 8.347656 8.421875 C 8.574219 8.421875 8.703125 8.378906 8.734375 8.289062 C 8.773438 8.191406 8.855469 8.167969 9.046875 8.210938 C 9.421875 8.292969 9.265625 8.101562 8.792969 7.898438 C 8.339844 7.707031 7.722656 7.691406 7.320312 7.867188 M 3.289062 8.003906 C 3.160156 8.050781 3.171875 8.066406 3.355469 8.117188 C 3.664062 8.195312 3.660156 8.511719 3.351562 8.476562 C 3.230469 8.464844 3.078125 8.421875 3.019531 8.386719 C 2.960938 8.347656 2.886719 8.34375 2.859375 8.371094 C 2.695312 8.535156 2.933594 10.539062 3.132812 10.675781 C 3.191406 10.71875 3.179688 10.738281 3.105469 10.742188 C 3.011719 10.742188 3.007812 10.769531 3.085938 10.863281 C 3.140625 10.929688 3.203125 11.0625 3.222656 11.164062 C 3.242188 11.265625 3.316406 11.40625 3.390625 11.480469 C 3.539062 11.628906 3.632812 11.933594 3.59375 12.121094 C 3.578125 12.191406 3.613281 12.238281 3.671875 12.226562 C 3.734375 12.210938 3.78125 12.242188 3.78125 12.289062 C 3.78125 12.335938 3.746094 12.375 3.703125 12.375 C 3.660156 12.375 3.664062 12.507812 3.71875 12.675781 C 3.769531 12.839844 3.84375 12.976562 3.882812 12.976562 C 3.921875 12.976562 3.953125 13.046875 3.953125 13.136719 C 3.953125 13.222656 4.03125 13.382812 4.125 13.492188 L 4.296875 13.691406 L 4.296875 13.246094 C 4.296875 12.96875 4.242188 12.714844 4.152344 12.578125 C 4.058594 12.4375 4 12.144531 3.984375 11.785156 C 3.976562 11.472656 3.925781 11.0625 3.878906 10.878906 C 3.808594 10.605469 3.820312 10.484375 3.945312 10.234375 C 4.101562 9.925781 4.210938 9.5625 4.253906 9.234375 C 4.265625 9.140625 4.390625 8.820312 4.53125 8.527344 C 4.746094 8.078125 4.765625 7.988281 4.648438 7.976562 C 4.285156 7.9375 3.421875 7.957031 3.289062 8.003906 M 1.335938 8.257812 C 1.515625 8.453125 1.546875 8.460938 1.546875 8.304688 C 1.546875 8.238281 1.464844 8.164062 1.367188 8.136719 C 1.195312 8.09375 1.195312 8.097656 1.335938 8.257812 M 11.085938 8.378906 C 11.085938 8.496094 11.121094 8.59375 11.160156 8.59375 C 11.199219 8.59375 11.214844 8.496094 11.191406 8.378906 C 11.171875 8.261719 11.136719 8.164062 11.117188 8.164062 C 11.101562 8.164062 11.085938 8.261719 11.085938 8.378906 M 21.664062 8.472656 C 21.667969 8.570312 21.6875 8.59375 21.714844 8.523438 C 21.738281 8.460938 21.738281 8.386719 21.707031 8.359375 C 21.679688 8.332031 21.660156 8.382812 21.664062 8.472656 M 1.503906 8.792969 C 1.402344 8.949219 1.386719 9.050781 1.449219 9.167969 C 1.496094 9.253906 1.554688 9.386719 1.574219 9.460938 C 1.597656 9.539062 1.796875 9.65625 2.011719 9.730469 C 2.386719 9.851562 2.40625 9.851562 2.40625 9.695312 C 2.40625 9.601562 2.375 9.550781 2.332031 9.574219 C 2.292969 9.597656 2.277344 9.523438 2.300781 9.410156 C 2.328125 9.257812 2.292969 9.179688 2.179688 9.140625 C 2.089844 9.109375 1.953125 9.023438 1.867188 8.953125 C 1.785156 8.878906 1.71875 8.863281 1.71875 8.917969 C 1.71875 8.96875 1.816406 9.085938 1.933594 9.179688 C 2.179688 9.371094 2.203125 9.453125 2.023438 9.453125 C 1.71875 9.453125 1.398438 8.832031 1.65625 8.742188 C 1.714844 8.71875 1.734375 8.675781 1.703125 8.640625 C 1.671875 8.605469 1.582031 8.675781 1.503906 8.792969 M 21.570312 8.855469 C 21.570312 8.90625 21.609375 8.921875 21.65625 8.894531 C 21.703125 8.867188 21.742188 8.824219 21.742188 8.804688 C 21.742188 8.78125 21.703125 8.765625 21.65625 8.765625 C 21.609375 8.765625 21.570312 8.804688 21.570312 8.855469 M 21.457031 9.140625 C 21.425781 9.226562 21.402344 9.359375 21.402344 9.4375 C 21.40625 9.535156 21.4375 9.511719 21.492188 9.375 C 21.539062 9.261719 21.5625 9.128906 21.546875 9.078125 C 21.527344 9.027344 21.488281 9.058594 21.457031 9.140625 M 11.171875 9.257812 C 11.171875 9.296875 11.265625 9.324219 11.378906 9.324219 C 11.492188 9.324219 11.566406 9.296875 11.546875 9.257812 C 11.523438 9.222656 11.429688 9.195312 11.339844 9.195312 C 11.246094 9.195312 11.171875 9.222656 11.171875 9.257812 M 10.957031 9.367188 C 10.929688 9.414062 10.945312 9.453125 10.996094 9.453125 C 11.046875 9.453125 11.085938 9.414062 11.085938 9.367188 C 11.085938 9.320312 11.070312 9.28125 11.046875 9.28125 C 11.027344 9.28125 10.984375 9.320312 10.957031 9.367188 M 11.089844 9.570312 C 10.960938 9.695312 10.976562 9.835938 11.109375 9.730469 C 11.167969 9.679688 11.3125 9.628906 11.429688 9.609375 L 11.644531 9.578125 L 11.414062 9.527344 C 11.285156 9.5 11.140625 9.519531 11.089844 9.570312 M 1.375 9.664062 C 1.375 9.738281 1.414062 9.796875 1.460938 9.796875 C 1.507812 9.796875 1.546875 9.761719 1.546875 9.714844 C 1.546875 9.671875 1.507812 9.609375 1.460938 9.582031 C 1.414062 9.554688 1.375 9.589844 1.375 9.664062 M 1.730469 9.859375 C 1.5625 9.890625 1.539062 9.933594 1.585938 10.125 C 1.617188 10.253906 1.652344 10.433594 1.664062 10.527344 C 1.703125 10.78125 2.070312 10.777344 2.261719 10.519531 C 2.394531 10.339844 2.398438 10.28125 2.300781 10.078125 C 2.1875 9.832031 2.074219 9.792969 1.730469 9.859375 M 11.171875 9.925781 C 11.082031 10.035156 11.101562 10.054688 11.300781 10.054688 C 11.5 10.054688 11.519531 10.035156 11.429688 9.925781 C 11.371094 9.855469 11.3125 9.796875 11.300781 9.796875 C 11.289062 9.796875 11.230469 9.855469 11.171875 9.925781 M 1.71875 10.230469 C 1.71875 10.335938 1.933594 10.425781 2.070312 10.382812 C 2.125 10.363281 2.066406 10.304688 1.941406 10.246094 C 1.800781 10.183594 1.71875 10.175781 1.71875 10.230469 M 10.914062 10.265625 C 10.914062 10.332031 10.949219 10.410156 10.992188 10.4375 C 11.035156 10.464844 11.050781 10.40625 11.023438 10.3125 C 10.972656 10.113281 10.914062 10.085938 10.914062 10.265625 M 11.480469 10.28125 C 11.398438 10.496094 11.488281 10.523438 11.597656 10.320312 C 11.648438 10.222656 11.65625 10.140625 11.613281 10.140625 C 11.570312 10.140625 11.507812 10.203125 11.480469 10.28125 M 11.171875 10.3125 C 11.171875 10.359375 11.210938 10.398438 11.257812 10.398438 C 11.304688 10.398438 11.34375 10.359375 11.34375 10.3125 C 11.34375 10.265625 11.304688 10.226562 11.257812 10.226562 C 11.210938 10.226562 11.171875 10.265625 11.171875 10.3125 M 2.234375 10.65625 C 2.234375 10.703125 2.273438 10.742188 2.324219 10.742188 C 2.375 10.742188 2.390625 10.703125 2.363281 10.65625 C 2.335938 10.609375 2.292969 10.570312 2.273438 10.570312 C 2.25 10.570312 2.234375 10.609375 2.234375 10.65625 M 2.5 10.964844 C 2.503906 11.0625 2.523438 11.085938 2.550781 11.015625 C 2.574219 10.953125 2.574219 10.878906 2.542969 10.851562 C 2.515625 10.824219 2.496094 10.875 2.5 10.964844 M 4.898438 11.175781 C 4.898438 11.226562 4.9375 11.242188 4.984375 11.214844 C 5.03125 11.1875 5.070312 11.144531 5.070312 11.125 C 5.070312 11.101562 5.03125 11.085938 4.984375 11.085938 C 4.9375 11.085938 4.898438 11.125 4.898438 11.175781 M 20.84375 11.285156 C 20.753906 11.339844 20.589844 11.484375 20.484375 11.609375 C 20.238281 11.890625 19.632812 12.105469 19.488281 11.960938 C 19.300781 11.773438 19.273438 11.859375 19.390625 12.300781 C 19.523438 12.824219 19.632812 12.984375 19.550781 12.539062 C 19.496094 12.238281 19.5 12.230469 19.890625 12.082031 C 20.109375 11.996094 20.394531 11.84375 20.523438 11.742188 C 20.648438 11.640625 20.828125 11.515625 20.921875 11.464844 C 21.09375 11.371094 21.207031 11.167969 21.082031 11.175781 C 21.042969 11.179688 20.9375 11.226562 20.84375 11.285156 M 2.671875 11.730469 C 2.660156 12.136719 3.0625 13.199219 3.300781 13.398438 C 3.394531 13.476562 3.355469 13.324219 3.1875 12.921875 C 3.050781 12.597656 2.878906 12.175781 2.804688 11.988281 C 2.730469 11.800781 2.671875 11.683594 2.671875 11.730469 M 11.515625 13.128906 C 11.515625 13.324219 11.554688 13.507812 11.605469 13.535156 C 11.660156 13.574219 11.671875 13.464844 11.632812 13.21875 C 11.558594 12.726562 11.515625 12.695312 11.515625 13.128906 M 11.945312 13.152344 C 11.980469 13.347656 12.058594 13.550781 12.117188 13.605469 C 12.203125 13.6875 12.203125 13.667969 12.121094 13.511719 C 12.066406 13.402344 12.042969 13.242188 12.070312 13.15625 C 12.097656 13.070312 12.066406 12.957031 12 12.902344 C 11.902344 12.820312 11.890625 12.859375 11.945312 13.152344 M 19.0625 13.320312 C 18.980469 13.460938 18.949219 13.578125 18.992188 13.578125 C 19.03125 13.578125 19.089844 13.5 19.121094 13.40625 C 19.152344 13.3125 19.210938 13.234375 19.253906 13.234375 C 19.300781 13.234375 19.335938 13.195312 19.335938 13.148438 C 19.335938 12.984375 19.207031 13.066406 19.0625 13.320312 M 16.074219 13.507812 C 16.070312 13.585938 15.96875 13.773438 15.84375 13.917969 C 15.722656 14.066406 15.636719 14.207031 15.664062 14.230469 C 15.6875 14.253906 15.804688 14.15625 15.925781 14.011719 L 16.148438 13.75 L 16.363281 13.964844 C 16.480469 14.082031 16.628906 14.179688 16.691406 14.175781 C 16.75 14.175781 16.695312 14.109375 16.566406 14.03125 C 16.4375 13.949219 16.273438 13.765625 16.203125 13.625 C 16.128906 13.46875 16.074219 13.421875 16.074219 13.507812 M 18.433594 13.921875 C 18.40625 13.96875 18.421875 14.007812 18.472656 14.007812 C 18.523438 14.007812 18.5625 13.96875 18.5625 13.921875 C 18.5625 13.875 18.546875 13.835938 18.523438 13.835938 C 18.503906 13.835938 18.460938 13.875 18.433594 13.921875 M 17.875 14.09375 C 17.875 14.140625 17.914062 14.179688 17.960938 14.179688 C 18.007812 14.179688 18.046875 14.140625 18.046875 14.09375 C 18.046875 14.046875 18.007812 14.007812 17.960938 14.007812 C 17.914062 14.007812 17.875 14.046875 17.875 14.09375 M 17.34375 14.238281 C 17.40625 14.261719 17.480469 14.261719 17.507812 14.230469 C 17.535156 14.203125 17.484375 14.183594 17.394531 14.1875 C 17.296875 14.191406 17.273438 14.210938 17.34375 14.238281 M 11.515625 14.34375 C 11.515625 14.441406 11.765625 14.539062 11.867188 14.476562 C 11.914062 14.449219 11.925781 14.390625 11.898438 14.34375 C 11.835938 14.242188 11.515625 14.242188 11.515625 14.34375 M 16.328125 14.300781 C 16.328125 14.328125 16.40625 14.386719 16.5 14.4375 C 16.59375 14.488281 16.671875 14.511719 16.671875 14.488281 C 16.671875 14.460938 16.59375 14.402344 16.5 14.351562 C 16.40625 14.300781 16.328125 14.277344 16.328125 14.300781 M 13.277344 14.523438 C 13.25 14.570312 13.265625 14.609375 13.316406 14.609375 C 13.367188 14.609375 13.40625 14.570312 13.40625 14.523438 C 13.40625 14.476562 13.390625 14.4375 13.367188 14.4375 C 13.347656 14.4375 13.304688 14.476562 13.277344 14.523438 M 13.234375 15.519531 C 13.234375 15.59375 13.28125 15.640625 13.335938 15.621094 C 13.496094 15.566406 13.523438 15.382812 13.371094 15.382812 C 13.296875 15.382812 13.234375 15.445312 13.234375 15.519531 M 17.109375 15.511719 C 17.117188 15.675781 17.261719 15.949219 17.265625 15.8125 C 17.269531 15.742188 17.234375 15.625 17.1875 15.554688 C 17.140625 15.484375 17.105469 15.464844 17.109375 15.511719 M 12.683594 16.210938 C 12.636719 16.328125 12.648438 16.335938 12.757812 16.242188 C 12.910156 16.121094 12.925781 16.070312 12.8125 16.070312 C 12.773438 16.070312 12.710938 16.132812 12.683594 16.210938 M 11.992188 16.476562 C 11.945312 16.597656 11.957031 16.605469 12.042969 16.523438 C 12.101562 16.464844 12.128906 16.394531 12.101562 16.367188 C 12.074219 16.34375 12.027344 16.390625 11.992188 16.476562 M 17.074219 16.644531 C 17.042969 16.675781 17.015625 16.742188 17.015625 16.789062 C 17.015625 16.84375 17.054688 16.839844 17.117188 16.777344 C 17.171875 16.71875 17.199219 16.65625 17.175781 16.628906 C 17.148438 16.605469 17.105469 16.613281 17.074219 16.644531 M 11.257812 16.761719 C 11.257812 16.8125 11.296875 16.828125 11.34375 16.800781 C 11.390625 16.773438 11.429688 16.730469 11.429688 16.710938 C 11.429688 16.6875 11.390625 16.671875 11.34375 16.671875 C 11.296875 16.671875 11.257812 16.710938 11.257812 16.761719 M 15.222656 17.761719 C 15.207031 18.003906 15.332031 18.082031 15.472656 17.914062 C 15.558594 17.808594 15.554688 17.792969 15.445312 17.835938 C 15.359375 17.867188 15.296875 17.832031 15.269531 17.730469 C 15.238281 17.601562 15.230469 17.609375 15.222656 17.761719 M 6.152344 17.777344 C 6.113281 17.835938 6.109375 17.910156 6.136719 17.9375 C 6.210938 18.015625 6.296875 17.902344 6.253906 17.777344 C 6.226562 17.691406 6.207031 17.691406 6.152344 17.777344 M 6.574219 18.046875 C 6.601562 18.09375 6.644531 18.132812 6.664062 18.132812 C 6.6875 18.132812 6.703125 18.09375 6.703125 18.046875 C 6.703125 18 6.664062 17.960938 6.613281 17.960938 C 6.5625 17.960938 6.546875 18 6.574219 18.046875 M 7.046875 18.089844 C 7.046875 18.167969 7.089844 18.21875 7.140625 18.203125 C 7.191406 18.183594 7.230469 18.132812 7.230469 18.089844 C 7.230469 18.046875 7.191406 17.996094 7.140625 17.976562 C 7.089844 17.960938 7.046875 18.011719 7.046875 18.089844 M 7.476562 18.039062 C 7.476562 18.132812 7.742188 18.242188 7.808594 18.171875 C 7.835938 18.144531 7.800781 18.085938 7.730469 18.042969 C 7.570312 17.941406 7.476562 17.941406 7.476562 18.039062 M 18.175781 18.046875 C 18.148438 18.09375 18.164062 18.199219 18.210938 18.28125 C 18.285156 18.414062 18.300781 18.398438 18.300781 18.195312 C 18.304688 17.949219 18.265625 17.902344 18.175781 18.046875 M 15.511719 18.21875 C 15.40625 18.386719 15.382812 18.722656 15.46875 18.777344 C 15.515625 18.804688 15.554688 18.789062 15.554688 18.738281 C 15.554688 18.6875 15.652344 18.5625 15.769531 18.460938 C 15.929688 18.320312 15.957031 18.253906 15.878906 18.203125 C 15.726562 18.109375 15.574219 18.117188 15.511719 18.21875 M 15.886719 18.574219 C 15.789062 18.671875 15.734375 18.804688 15.761719 18.875 C 15.789062 18.949219 15.8125 19.054688 15.8125 19.113281 C 15.8125 19.171875 15.90625 19.269531 16.015625 19.332031 C 16.335938 19.5 16.585938 19.324219 16.585938 18.925781 C 16.585938 18.613281 16.582031 18.613281 16.453125 18.800781 C 16.378906 18.910156 16.285156 18.976562 16.242188 18.949219 C 16.203125 18.925781 16.152344 18.953125 16.132812 19.011719 C 16.109375 19.074219 16.058594 19.089844 16.019531 19.050781 C 15.976562 19.011719 16.007812 18.941406 16.089844 18.894531 C 16.171875 18.851562 16.277344 18.742188 16.324219 18.652344 C 16.453125 18.414062 16.109375 18.351562 15.886719 18.574219 M 6.617188 19.246094 C 6.617188 19.289062 6.65625 19.347656 6.703125 19.378906 C 6.75 19.410156 6.765625 19.375 6.734375 19.296875 C 6.679688 19.148438 6.617188 19.121094 6.617188 19.246094 M 18.398438 19.335938 C 18.394531 19.40625 18.429688 19.523438 18.476562 19.59375 C 18.578125 19.75 18.578125 19.613281 18.476562 19.378906 C 18.429688 19.265625 18.402344 19.25 18.398438 19.335938 M 6.605469 19.820312 C 6.464844 20.117188 6.515625 20.207031 6.699219 19.984375 C 6.757812 19.917969 6.789062 19.789062 6.773438 19.695312 C 6.75 19.566406 6.71875 19.59375 6.605469 19.820312 M 18.023438 20.222656 C 17.789062 20.464844 17.777344 20.625 18 20.625 C 18.0625 20.625 18.15625 20.570312 18.214844 20.503906 C 18.296875 20.402344 18.28125 20.386719 18.117188 20.421875 L 17.917969 20.464844 L 18.117188 20.289062 C 18.230469 20.191406 18.308594 20.082031 18.289062 20.046875 C 18.273438 20.011719 18.15625 20.089844 18.023438 20.222656 M 18.644531 20.28125 C 18.585938 20.441406 18.675781 21.042969 18.738281 20.925781 C 18.765625 20.878906 18.765625 20.683594 18.738281 20.496094 C 18.710938 20.308594 18.667969 20.210938 18.644531 20.28125 M 5.585938 20.476562 C 5.46875 20.53125 5.351562 20.605469 5.324219 20.640625 C 5.296875 20.679688 5.085938 20.84375 4.851562 21.011719 C 4.617188 21.175781 4.46875 21.3125 4.519531 21.3125 C 4.574219 21.3125 4.785156 21.1875 4.992188 21.03125 C 5.203125 20.878906 5.476562 20.695312 5.609375 20.628906 C 5.738281 20.5625 5.84375 20.476562 5.84375 20.4375 C 5.84375 20.355469 5.859375 20.351562 5.585938 20.476562 M 3.902344 21.652344 C 3.710938 21.78125 3.496094 21.914062 3.429688 21.945312 C 3.363281 21.976562 3.445312 21.980469 3.609375 21.957031 C 3.882812 21.914062 4.382812 21.542969 4.292969 21.449219 C 4.269531 21.429688 4.09375 21.519531 3.902344 21.652344 M 19.269531 21.828125 C 19.328125 21.921875 19.421875 22 19.476562 22 C 19.535156 22 19.558594 21.925781 19.53125 21.828125 C 19.507812 21.734375 19.414062 21.65625 19.324219 21.65625 C 19.183594 21.65625 19.175781 21.679688 19.269531 21.828125 "/>
<path style=" stroke:none;fill-rule:evenodd;fill:rgb(22.352941%,15.294118%,12.156863%);fill-opacity:1;" d="M 5.109375 0.308594 C 4.945312 0.363281 4.8125 0.394531 4.8125 0.375 C 4.8125 0.355469 4.695312 0.398438 4.554688 0.472656 C 4.414062 0.546875 4.296875 0.585938 4.296875 0.5625 C 4.296875 0.539062 4.09375 0.671875 3.84375 0.859375 C 3.597656 1.046875 3.257812 1.226562 3.09375 1.253906 C 2.929688 1.285156 2.554688 1.460938 2.265625 1.648438 C 1.710938 2 1.523438 2.292969 1.292969 3.15625 C 1.242188 3.359375 1.164062 3.523438 1.125 3.523438 C 0.976562 3.523438 0.613281 4.191406 0.511719 4.652344 C 0.417969 5.078125 0.425781 5.175781 0.566406 5.488281 C 0.652344 5.6875 0.8125 5.90625 0.925781 5.980469 C 1.0625 6.070312 1.113281 6.160156 1.074219 6.257812 C 0.957031 6.558594 0.847656 7.332031 0.917969 7.382812 C 0.957031 7.410156 1.082031 7.570312 1.195312 7.734375 L 1.402344 8.035156 L 1.171875 7.828125 C 1.046875 7.710938 0.945312 7.65625 0.945312 7.703125 C 0.945312 7.835938 1.28125 8.164062 1.421875 8.164062 C 1.503906 8.164062 1.546875 8.253906 1.546875 8.425781 C 1.546875 8.582031 1.582031 8.667969 1.632812 8.636719 C 1.679688 8.609375 1.71875 8.625 1.71875 8.675781 C 1.71875 8.726562 1.679688 8.765625 1.632812 8.765625 C 1.484375 8.765625 1.539062 9.070312 1.722656 9.265625 C 1.882812 9.4375 2.148438 9.523438 2.148438 9.402344 C 2.148438 9.371094 2.050781 9.273438 1.933594 9.179688 C 1.816406 9.085938 1.71875 8.96875 1.71875 8.917969 C 1.71875 8.867188 1.789062 8.890625 1.875 8.96875 C 1.960938 9.046875 2.074219 9.109375 2.128906 9.109375 C 2.257812 9.109375 2.292969 9.179688 2.363281 9.554688 L 2.421875 9.867188 L 2.050781 9.742188 C 1.84375 9.671875 1.621094 9.550781 1.558594 9.46875 C 1.453125 9.339844 1.445312 9.347656 1.492188 9.539062 C 1.519531 9.65625 1.546875 9.785156 1.546875 9.820312 C 1.546875 9.859375 1.691406 9.878906 1.867188 9.863281 C 2.140625 9.84375 2.199219 9.871094 2.304688 10.082031 C 2.40625 10.296875 2.402344 10.34375 2.269531 10.492188 C 2.1875 10.582031 2.144531 10.683594 2.175781 10.714844 C 2.207031 10.746094 2.234375 10.71875 2.234375 10.65625 C 2.234375 10.578125 2.296875 10.601562 2.40625 10.722656 C 2.5 10.824219 2.578125 10.984375 2.578125 11.078125 C 2.578125 11.304688 2.929688 12.367188 3.214844 13.011719 C 3.410156 13.453125 3.804688 14.023438 4.1875 14.421875 C 4.246094 14.484375 4.296875 14.628906 4.296875 14.746094 C 4.296875 15.0625 4.972656 15.699219 5.386719 15.777344 C 6.015625 15.890625 6.054688 15.953125 6.144531 16.921875 C 6.179688 17.316406 6.160156 17.421875 6.007812 17.582031 C 5.800781 17.800781 5.863281 18 6.234375 18.292969 C 6.484375 18.488281 6.816406 19.375 6.773438 19.738281 C 6.753906 19.921875 6.664062 20.019531 6.394531 20.152344 C 6.203125 20.246094 5.929688 20.402344 5.792969 20.496094 C 5.65625 20.589844 5.476562 20.707031 5.398438 20.753906 C 4.96875 21.011719 4.316406 21.488281 4.167969 21.65625 C 4.074219 21.761719 3.917969 21.878906 3.824219 21.917969 C 3.710938 21.964844 3.875 21.992188 4.296875 21.996094 C 4.796875 22 5.003906 21.960938 5.226562 21.828125 C 5.382812 21.730469 5.484375 21.613281 5.453125 21.5625 C 5.421875 21.511719 5.449219 21.484375 5.511719 21.5 C 5.578125 21.511719 5.730469 21.429688 5.855469 21.3125 C 6.355469 20.835938 6.605469 20.644531 6.652344 20.691406 C 6.679688 20.71875 6.703125 20.703125 6.703125 20.65625 C 6.703125 20.613281 6.785156 20.570312 6.882812 20.5625 C 6.980469 20.554688 7.128906 20.46875 7.214844 20.371094 C 7.300781 20.273438 7.410156 20.195312 7.460938 20.195312 C 7.515625 20.195312 7.597656 20.121094 7.648438 20.027344 C 7.699219 19.925781 7.789062 19.878906 7.867188 19.90625 C 7.960938 19.945312 7.980469 19.917969 7.9375 19.804688 C 7.894531 19.695312 7.90625 19.671875 7.984375 19.71875 C 8.070312 19.773438 8.074219 19.75 8 19.609375 C 7.949219 19.511719 7.90625 19.261719 7.90625 19.054688 C 7.90625 18.765625 7.957031 18.632812 8.121094 18.476562 C 8.398438 18.214844 8.269531 18.042969 7.957031 18.25 C 7.664062 18.441406 7.519531 18.425781 7.414062 18.195312 C 7.339844 18.03125 7.367188 17.96875 7.59375 17.761719 C 7.773438 17.605469 7.828125 17.507812 7.757812 17.476562 C 7.695312 17.453125 7.648438 17.394531 7.648438 17.347656 C 7.648438 17.300781 7.6875 17.289062 7.734375 17.316406 C 7.78125 17.34375 7.820312 17.332031 7.820312 17.285156 C 7.820312 17.238281 7.773438 17.179688 7.710938 17.152344 C 7.625 17.113281 7.625 17.089844 7.710938 17.050781 C 7.773438 17.023438 7.820312 16.910156 7.820312 16.800781 C 7.820312 16.492188 7.964844 16.171875 8.214844 15.941406 C 8.335938 15.828125 8.445312 15.636719 8.460938 15.515625 C 8.488281 15.261719 8.503906 15.269531 8.191406 15.394531 C 7.859375 15.53125 7.765625 15.546875 7.164062 15.578125 C 6.6875 15.601562 6.636719 15.585938 6.664062 15.441406 C 6.6875 15.324219 6.660156 15.296875 6.558594 15.332031 C 6.484375 15.363281 6.375 15.34375 6.3125 15.292969 C 6.246094 15.238281 6.183594 15.234375 6.152344 15.285156 C 6.082031 15.398438 5.078125 15.085938 4.886719 14.890625 C 4.804688 14.808594 4.714844 14.601562 4.6875 14.4375 C 4.644531 14.160156 4.667969 14.117188 4.988281 13.898438 C 5.234375 13.726562 5.398438 13.675781 5.527344 13.714844 C 5.710938 13.773438 5.714844 13.769531 5.550781 13.589844 C 5.425781 13.449219 5.363281 13.429688 5.269531 13.503906 C 5.207031 13.558594 5.125 13.574219 5.089844 13.535156 C 5.054688 13.5 5.074219 13.453125 5.128906 13.433594 C 5.1875 13.410156 5.214844 13.34375 5.191406 13.285156 C 5.160156 13.207031 5.265625 13.148438 5.515625 13.101562 C 5.871094 13.03125 5.875 13.027344 5.613281 13 C 5.464844 12.980469 5.320312 12.90625 5.289062 12.832031 C 5.246094 12.710938 5.308594 12.699219 5.757812 12.742188 C 6.339844 12.792969 6.640625 12.742188 6.589844 12.601562 C 6.570312 12.546875 6.421875 12.515625 6.242188 12.53125 C 6.03125 12.550781 5.828125 12.5 5.625 12.371094 C 5.445312 12.261719 5.246094 12.203125 5.140625 12.234375 C 4.871094 12.300781 4.640625 12.144531 4.640625 11.894531 C 4.640625 11.59375 5.058594 11.226562 5.605469 11.054688 C 5.703125 11.023438 5.734375 10.957031 5.699219 10.863281 C 5.65625 10.75 5.570312 10.734375 5.253906 10.777344 C 5.039062 10.804688 4.835938 10.875 4.800781 10.929688 C 4.753906 11.007812 4.6875 11.007812 4.511719 10.929688 C 4.386719 10.871094 4.253906 10.84375 4.21875 10.867188 C 4.179688 10.890625 4.101562 10.816406 4.042969 10.707031 C 3.953125 10.535156 3.960938 10.457031 4.113281 10.171875 C 4.210938 9.988281 4.496094 9.414062 4.742188 8.894531 C 5.132812 8.074219 5.191406 7.878906 5.195312 7.410156 C 5.199219 7.046875 5.160156 6.84375 5.085938 6.796875 C 5.019531 6.757812 4.96875 6.691406 4.96875 6.652344 C 4.957031 6.371094 4.226562 5.835938 3.832031 5.816406 C 3.660156 5.808594 3.523438 5.773438 3.523438 5.738281 C 3.523438 5.703125 3.460938 5.703125 3.378906 5.730469 C 3.289062 5.765625 3.257812 5.753906 3.296875 5.695312 C 3.328125 5.640625 3.3125 5.585938 3.265625 5.570312 C 3.21875 5.554688 3.164062 5.375 3.144531 5.171875 C 3.113281 4.847656 3.125 4.816406 3.246094 4.914062 C 3.363281 5.015625 3.367188 5.003906 3.28125 4.839844 C 3.15625 4.609375 3.148438 4.296875 3.265625 4.296875 C 3.3125 4.296875 3.351562 4.21875 3.351562 4.125 C 3.351562 4.03125 3.390625 3.953125 3.4375 3.953125 C 3.484375 3.953125 3.515625 3.925781 3.503906 3.890625 C 3.484375 3.820312 3.6875 3.421875 3.777344 3.351562 C 3.808594 3.328125 3.902344 3.164062 3.984375 2.984375 C 4.066406 2.808594 4.238281 2.597656 4.367188 2.515625 C 4.492188 2.433594 4.621094 2.332031 4.652344 2.292969 C 4.679688 2.25 4.8125 2.285156 4.945312 2.371094 L 5.183594 2.527344 L 5.078125 2.335938 C 5.023438 2.230469 5 2.105469 5.027344 2.0625 C 5.109375 1.929688 5.398438 1.960938 5.484375 2.113281 C 5.550781 2.234375 5.582031 2.222656 5.734375 2.027344 C 5.933594 1.777344 6.1875 1.730469 6.1875 1.945312 C 6.1875 2.058594 6.210938 2.0625 6.316406 1.976562 C 6.386719 1.917969 6.445312 1.824219 6.445312 1.765625 C 6.445312 1.707031 6.507812 1.660156 6.585938 1.660156 C 6.675781 1.660156 6.828125 1.878906 7.007812 2.269531 C 7.375 3.0625 7.570312 3.265625 8.265625 3.597656 C 8.859375 3.878906 9.480469 4.472656 9.398438 4.683594 C 9.375 4.746094 9.402344 4.824219 9.460938 4.859375 C 9.535156 4.90625 9.542969 4.886719 9.496094 4.804688 C 9.460938 4.738281 9.566406 4.820312 9.734375 4.984375 C 9.902344 5.148438 10.023438 5.3125 10.003906 5.34375 C 9.984375 5.375 10.085938 5.449219 10.226562 5.515625 C 10.554688 5.660156 10.617188 5.851562 10.445312 6.179688 C 10.371094 6.320312 10.3125 6.496094 10.3125 6.566406 C 10.3125 6.730469 10.136719 6.839844 10.066406 6.71875 C 10.035156 6.671875 9.953125 6.632812 9.882812 6.636719 C 9.613281 6.652344 9.445312 6.613281 9.488281 6.546875 C 9.5625 6.425781 8.722656 6.261719 8.003906 6.253906 C 7.480469 6.25 7.257812 6.285156 7.082031 6.398438 C 6.875 6.535156 6.863281 6.5625 6.996094 6.632812 C 7.089844 6.6875 7.179688 6.683594 7.253906 6.625 C 7.3125 6.574219 7.386719 6.554688 7.414062 6.585938 C 7.445312 6.613281 7.738281 6.636719 8.070312 6.636719 C 8.402344 6.632812 8.972656 6.671875 9.339844 6.714844 C 9.96875 6.792969 10.023438 6.820312 10.339844 7.160156 C 10.519531 7.355469 10.742188 7.597656 10.832031 7.691406 C 10.984375 7.851562 10.984375 7.890625 10.863281 8.238281 C 10.746094 8.585938 10.746094 8.628906 10.886719 8.78125 C 11.003906 8.914062 11.015625 8.980469 10.9375 9.105469 C 10.789062 9.339844 10.714844 9.855469 10.816406 9.917969 C 10.863281 9.949219 10.882812 10.101562 10.855469 10.257812 C 10.816406 10.5 10.851562 10.574219 11.09375 10.777344 C 11.320312 10.96875 11.433594 11.007812 11.667969 10.96875 C 11.945312 10.925781 12.546875 11.125 12.546875 11.265625 C 12.546875 11.34375 12.09375 11.644531 12.007812 11.621094 C 11.972656 11.609375 11.945312 11.675781 11.945312 11.769531 C 11.945312 11.890625 11.90625 11.925781 11.808594 11.886719 C 11.714844 11.851562 11.691406 11.773438 11.726562 11.625 C 11.761719 11.492188 11.75 11.433594 11.691406 11.46875 C 11.640625 11.5 11.601562 11.589844 11.597656 11.671875 C 11.597656 11.796875 11.582031 11.796875 11.46875 11.648438 C 11.347656 11.484375 11.34375 11.488281 11.34375 11.667969 C 11.34375 11.820312 11.480469 12.238281 11.578125 12.367188 C 11.589844 12.390625 11.664062 12.332031 11.738281 12.238281 C 11.878906 12.070312 11.875 12.125 11.71875 12.507812 C 11.675781 12.613281 11.710938 12.628906 11.871094 12.589844 C 12.046875 12.546875 12.09375 12.589844 12.230469 12.925781 C 12.320312 13.140625 12.363281 13.355469 12.335938 13.402344 C 12.304688 13.453125 12.316406 13.492188 12.367188 13.492188 C 12.414062 13.492188 12.480469 13.628906 12.511719 13.796875 C 12.542969 13.964844 12.628906 14.160156 12.699219 14.234375 C 12.8125 14.347656 12.816406 14.378906 12.710938 14.445312 C 12.597656 14.515625 12.664062 14.5625 12.832031 14.53125 C 12.871094 14.523438 12.878906 14.558594 12.847656 14.609375 C 12.777344 14.722656 12.96875 14.96875 13.074219 14.902344 C 13.117188 14.875 13.132812 14.828125 13.113281 14.789062 C 13.089844 14.753906 13.1875 14.742188 13.324219 14.761719 C 13.566406 14.800781 13.695312 15.039062 13.46875 15.039062 C 13.398438 15.042969 13.394531 15.0625 13.457031 15.105469 C 13.683594 15.261719 13.679688 15.726562 13.449219 15.726562 C 13.390625 15.726562 13.277344 15.820312 13.203125 15.9375 C 13.027344 16.203125 13.027344 16.25 13.191406 16.1875 C 13.261719 16.160156 13.320312 16.183594 13.320312 16.242188 C 13.320312 16.300781 13.375 16.324219 13.441406 16.300781 C 13.511719 16.273438 13.613281 16.308594 13.667969 16.375 C 13.726562 16.445312 13.800781 16.5 13.835938 16.5 C 13.941406 16.5 14.4375 16.988281 14.4375 17.09375 C 14.4375 17.144531 14.476562 17.1875 14.523438 17.1875 C 14.570312 17.1875 14.609375 17.246094 14.609375 17.316406 C 14.609375 17.386719 14.648438 17.445312 14.695312 17.445312 C 14.742188 17.445312 14.78125 17.503906 14.78125 17.574219 C 14.78125 17.644531 14.898438 17.863281 15.039062 18.058594 C 15.179688 18.257812 15.296875 18.484375 15.296875 18.566406 C 15.296875 18.792969 15.390625 18.996094 15.46875 18.949219 C 15.507812 18.925781 15.574219 19.011719 15.621094 19.144531 C 15.738281 19.484375 16.09375 19.65625 16.425781 19.527344 L 16.6875 19.429688 L 16.902344 19.921875 C 17.125 20.441406 17.609375 20.882812 17.960938 20.882812 C 18.128906 20.882812 18.132812 20.894531 18.011719 21.019531 C 17.839844 21.1875 17.839844 21.226562 18.007812 21.226562 C 18.082031 21.226562 18.117188 21.1875 18.089844 21.140625 C 18.0625 21.09375 18.078125 21.054688 18.128906 21.054688 C 18.257812 21.054688 18.242188 21.144531 18.078125 21.328125 C 17.945312 21.472656 17.945312 21.484375 18.082031 21.484375 C 18.164062 21.484375 18.203125 21.523438 18.175781 21.574219 C 18.144531 21.621094 18.246094 21.609375 18.40625 21.542969 C 18.617188 21.453125 18.6875 21.375 18.671875 21.238281 C 18.660156 21.136719 18.699219 21.054688 18.757812 21.054688 C 18.839844 21.050781 18.835938 21.035156 18.753906 20.980469 C 18.679688 20.9375 18.636719 20.691406 18.625 20.296875 C 18.617188 19.957031 18.585938 19.679688 18.550781 19.679688 C 18.519531 19.679688 18.453125 19.5625 18.402344 19.421875 C 18.355469 19.28125 18.269531 19.164062 18.21875 19.164062 C 18.15625 19.164062 18.144531 19.09375 18.183594 18.96875 C 18.246094 18.785156 18.246094 18.492188 18.1875 18.046875 C 18.171875 17.929688 18.152344 17.785156 18.144531 17.726562 C 18.140625 17.667969 17.972656 17.503906 17.777344 17.359375 C 17.40625 17.089844 17.046875 17.035156 16.746094 17.195312 C 16.589844 17.277344 16.582031 17.269531 16.664062 17.117188 C 16.710938 17.027344 16.804688 16.929688 16.871094 16.90625 C 16.933594 16.878906 17.058594 16.714844 17.144531 16.535156 C 17.273438 16.261719 17.28125 16.144531 17.207031 15.816406 C 17.15625 15.601562 17.089844 15.316406 17.0625 15.183594 C 17.03125 15.050781 16.855469 14.789062 16.667969 14.605469 C 16.316406 14.261719 16 14.121094 15.769531 14.210938 C 15.585938 14.28125 15.609375 14.199219 15.855469 13.90625 C 15.972656 13.765625 16.070312 13.585938 16.074219 13.507812 C 16.074219 13.421875 16.128906 13.476562 16.207031 13.628906 C 16.394531 14.007812 16.875 14.246094 17.394531 14.21875 C 17.625 14.203125 17.839844 14.148438 17.871094 14.097656 C 17.90625 14.046875 17.996094 14.027344 18.078125 14.058594 C 18.164062 14.089844 18.292969 14.050781 18.394531 13.960938 C 18.488281 13.878906 18.5625 13.84375 18.566406 13.886719 C 18.566406 13.929688 18.605469 13.898438 18.65625 13.8125 C 18.703125 13.730469 18.800781 13.664062 18.867188 13.664062 C 18.9375 13.664062 18.984375 13.617188 18.96875 13.554688 C 18.957031 13.496094 18.996094 13.457031 19.054688 13.46875 C 19.117188 13.480469 19.136719 13.4375 19.101562 13.347656 C 19.066406 13.253906 19.082031 13.226562 19.148438 13.269531 C 19.214844 13.308594 19.230469 13.28125 19.191406 13.179688 C 19.148438 13.070312 19.167969 13.046875 19.269531 13.085938 C 19.472656 13.164062 19.523438 12.820312 19.390625 12.300781 C 19.273438 11.859375 19.300781 11.773438 19.488281 11.960938 C 19.632812 12.105469 20.242188 11.886719 20.480469 11.609375 C 20.585938 11.484375 20.824219 11.308594 21.011719 11.210938 C 21.316406 11.054688 21.371094 10.980469 21.472656 10.566406 C 21.5625 10.199219 21.566406 10.015625 21.488281 9.707031 C 21.394531 9.332031 21.429688 9.023438 21.566406 9.023438 C 21.601562 9.023438 21.625 8.824219 21.617188 8.582031 C 21.605469 8.183594 21.570312 8.113281 21.242188 7.816406 C 21 7.597656 20.882812 7.417969 20.882812 7.273438 C 20.882812 7.15625 20.84375 7.035156 20.796875 7.003906 C 20.746094 6.972656 20.785156 6.851562 20.890625 6.710938 C 21.042969 6.503906 21.0625 6.398438 21.011719 5.988281 C 20.976562 5.722656 20.894531 5.4375 20.824219 5.351562 C 20.753906 5.269531 20.726562 5.257812 20.761719 5.328125 C 20.804688 5.414062 20.765625 5.402344 20.640625 5.292969 C 20.535156 5.203125 20.453125 5.085938 20.453125 5.03125 C 20.453125 4.910156 20.003906 4.640625 19.796875 4.636719 C 19.707031 4.636719 19.5625 4.578125 19.46875 4.507812 C 19.378906 4.441406 19.328125 4.382812 19.363281 4.382812 C 19.492188 4.382812 19.019531 3.988281 18.734375 3.859375 C 18.421875 3.71875 18.300781 3.710938 17.769531 3.8125 C 17.324219 3.898438 17.347656 3.886719 17.121094 4.113281 L 16.914062 4.320312 L 16.769531 4.070312 C 16.6875 3.933594 16.574219 3.660156 16.515625 3.460938 C 16.457031 3.265625 16.351562 3.042969 16.28125 2.976562 C 16.214844 2.90625 16.15625 2.824219 16.15625 2.792969 C 16.15625 2.722656 15.921875 2.484375 15.859375 2.488281 C 15.832031 2.492188 15.816406 2.46875 15.816406 2.441406 C 15.828125 2.332031 14.972656 1.957031 14.351562 1.796875 C 13.996094 1.707031 13.476562 1.511719 13.191406 1.363281 C 12.90625 1.214844 12.429688 0.96875 12.125 0.8125 C 11.820312 0.652344 11.550781 0.527344 11.523438 0.53125 C 11.496094 0.535156 11.453125 0.527344 11.429688 0.515625 C 11.40625 0.507812 11.234375 0.484375 11.050781 0.46875 C 10.867188 0.453125 10.652344 0.410156 10.578125 0.378906 C 10.324219 0.265625 10.1875 0.25 9.230469 0.199219 C 8.390625 0.15625 8.230469 0.171875 7.878906 0.328125 C 7.632812 0.4375 7.476562 0.46875 7.476562 0.410156 C 7.476562 0.359375 7.453125 0.339844 7.421875 0.371094 C 7.390625 0.398438 7.289062 0.382812 7.191406 0.328125 C 6.949219 0.199219 5.472656 0.183594 5.109375 0.308594 M 10.519531 6.410156 C 10.449219 6.582031 10.40625 6.765625 10.425781 6.820312 C 10.445312 6.875 10.511719 6.800781 10.566406 6.660156 C 10.621094 6.519531 10.730469 6.335938 10.804688 6.253906 C 10.929688 6.113281 10.929688 6.101562 10.792969 6.101562 C 10.707031 6.101562 10.59375 6.226562 10.519531 6.410156 M 3.128906 6.480469 C 3.097656 6.554688 3.039062 6.59375 2.996094 6.566406 C 2.949219 6.539062 2.859375 6.5625 2.789062 6.621094 C 2.691406 6.699219 2.683594 6.753906 2.757812 6.84375 C 2.832031 6.933594 2.832031 6.960938 2.746094 6.960938 C 2.683594 6.960938 2.65625 6.984375 2.683594 7.011719 C 2.710938 7.039062 2.855469 6.996094 3.003906 6.921875 C 3.269531 6.785156 3.628906 6.808594 4.285156 7.007812 C 4.472656 7.066406 4.476562 7.058594 4.371094 6.886719 C 4.308594 6.785156 4.210938 6.703125 4.15625 6.703125 C 4.097656 6.703125 4.039062 6.667969 4.023438 6.625 C 4.007812 6.582031 3.855469 6.53125 3.683594 6.507812 C 3.511719 6.484375 3.328125 6.441406 3.273438 6.40625 C 3.222656 6.375 3.15625 6.410156 3.128906 6.480469 M 10.769531 6.679688 C 10.738281 6.765625 10.699219 6.871094 10.679688 6.917969 C 10.660156 6.964844 10.703125 6.929688 10.777344 6.835938 C 10.914062 6.671875 10.953125 6.53125 10.867188 6.53125 C 10.84375 6.53125 10.796875 6.597656 10.769531 6.679688 M 2.835938 6.792969 C 2.835938 6.84375 2.875 6.859375 2.921875 6.832031 C 2.96875 6.804688 3.007812 6.761719 3.007812 6.742188 C 3.007812 6.71875 2.96875 6.703125 2.921875 6.703125 C 2.875 6.703125 2.835938 6.742188 2.835938 6.792969 M 3.300781 7.0625 C 3.273438 7.101562 3.210938 7.109375 3.164062 7.078125 C 3.109375 7.046875 3.089844 7.074219 3.109375 7.140625 C 3.136719 7.21875 3.300781 7.265625 3.566406 7.277344 C 3.878906 7.289062 4.082031 7.363281 4.367188 7.5625 C 4.574219 7.710938 4.757812 7.816406 4.773438 7.804688 C 4.808594 7.765625 4.632812 7.554688 4.359375 7.3125 C 4.121094 7.101562 3.382812 6.925781 3.300781 7.0625 M 3.203125 7.625 C 3.121094 7.652344 3.128906 7.695312 3.226562 7.792969 C 3.382812 7.949219 3.488281 7.890625 3.382812 7.710938 C 3.339844 7.644531 3.261719 7.605469 3.203125 7.625 M 7.320312 7.867188 C 7.042969 7.984375 6.988281 8.160156 7.203125 8.230469 C 7.261719 8.25 7.285156 8.210938 7.257812 8.136719 C 7.222656 8.054688 7.296875 7.980469 7.484375 7.917969 C 7.859375 7.785156 7.90625 7.792969 7.90625 7.984375 C 7.90625 8.328125 8 8.421875 8.347656 8.421875 C 8.574219 8.421875 8.703125 8.378906 8.734375 8.289062 C 8.773438 8.191406 8.855469 8.167969 9.046875 8.210938 C 9.421875 8.292969 9.265625 8.101562 8.792969 7.898438 C 8.339844 7.707031 7.722656 7.691406 7.320312 7.867188 M 3.289062 8.003906 C 3.160156 8.050781 3.171875 8.066406 3.355469 8.117188 C 3.664062 8.195312 3.660156 8.511719 3.351562 8.476562 C 3.230469 8.464844 3.078125 8.421875 3.019531 8.386719 C 2.960938 8.347656 2.886719 8.34375 2.859375 8.371094 C 2.695312 8.535156 2.933594 10.539062 3.132812 10.675781 C 3.191406 10.71875 3.179688 10.738281 3.105469 10.742188 C 3.011719 10.742188 3.007812 10.769531 3.085938 10.863281 C 3.140625 10.929688 3.203125 11.0625 3.222656 11.164062 C 3.242188 11.265625 3.316406 11.40625 3.390625 11.480469 C 3.539062 11.628906 3.632812 11.933594 3.59375 12.121094 C 3.578125 12.191406 3.613281 12.238281 3.671875 12.226562 C 3.734375 12.210938 3.78125 12.242188 3.78125 12.289062 C 3.78125 12.335938 3.746094 12.375 3.703125 12.375 C 3.660156 12.375 3.664062 12.507812 3.71875 12.675781 C 3.769531 12.839844 3.84375 12.976562 3.882812 12.976562 C 3.921875 12.976562 3.953125 13.046875 3.953125 13.136719 C 3.953125 13.222656 4.03125 13.382812 4.125 13.492188 L 4.296875 13.691406 L 4.296875 13.246094 C 4.296875 12.96875 4.242188 12.714844 4.152344 12.578125 C 4.058594 12.4375 4 12.144531 3.984375 11.785156 C 3.976562 11.472656 3.925781 11.0625 3.878906 10.878906 C 3.808594 10.605469 3.820312 10.484375 3.945312 10.234375 C 4.101562 9.925781 4.210938 9.5625 4.253906 9.234375 C 4.265625 9.140625 4.390625 8.820312 4.53125 8.527344 C 4.746094 8.078125 4.765625 7.988281 4.648438 7.976562 C 4.285156 7.9375 3.421875 7.957031 3.289062 8.003906 M 11.085938 8.378906 C 11.085938 8.496094 11.121094 8.59375 11.160156 8.59375 C 11.199219 8.59375 11.214844 8.496094 11.191406 8.378906 C 11.171875 8.261719 11.136719 8.164062 11.117188 8.164062 C 11.101562 8.164062 11.085938 8.261719 11.085938 8.378906 M 11.171875 9.257812 C 11.171875 9.296875 11.265625 9.324219 11.378906 9.324219 C 11.492188 9.324219 11.566406 9.296875 11.546875 9.257812 C 11.523438 9.222656 11.429688 9.195312 11.339844 9.195312 C 11.246094 9.195312 11.171875 9.222656 11.171875 9.257812 M 10.957031 9.367188 C 10.929688 9.414062 10.945312 9.453125 10.996094 9.453125 C 11.046875 9.453125 11.085938 9.414062 11.085938 9.367188 C 11.085938 9.320312 11.070312 9.28125 11.046875 9.28125 C 11.027344 9.28125 10.984375 9.320312 10.957031 9.367188 M 11.089844 9.570312 C 10.960938 9.695312 10.976562 9.835938 11.109375 9.730469 C 11.167969 9.679688 11.3125 9.628906 11.429688 9.609375 L 11.644531 9.578125 L 11.414062 9.527344 C 11.285156 9.5 11.140625 9.519531 11.089844 9.570312 M 11.171875 9.925781 C 11.082031 10.035156 11.101562 10.054688 11.300781 10.054688 C 11.5 10.054688 11.519531 10.035156 11.429688 9.925781 C 11.371094 9.855469 11.3125 9.796875 11.300781 9.796875 C 11.289062 9.796875 11.230469 9.855469 11.171875 9.925781 M 1.71875 10.230469 C 1.71875 10.335938 1.933594 10.425781 2.070312 10.382812 C 2.125 10.363281 2.066406 10.304688 1.941406 10.246094 C 1.800781 10.183594 1.71875 10.175781 1.71875 10.230469 M 10.914062 10.265625 C 10.914062 10.332031 10.949219 10.410156 10.992188 10.4375 C 11.035156 10.464844 11.050781 10.40625 11.023438 10.3125 C 10.972656 10.113281 10.914062 10.085938 10.914062 10.265625 M 11.480469 10.28125 C 11.398438 10.496094 11.488281 10.523438 11.597656 10.320312 C 11.648438 10.222656 11.65625 10.140625 11.613281 10.140625 C 11.570312 10.140625 11.507812 10.203125 11.480469 10.28125 M 11.171875 10.3125 C 11.171875 10.359375 11.210938 10.398438 11.257812 10.398438 C 11.304688 10.398438 11.34375 10.359375 11.34375 10.3125 C 11.34375 10.265625 11.304688 10.226562 11.257812 10.226562 C 11.210938 10.226562 11.171875 10.265625 11.171875 10.3125 M 4.898438 11.175781 C 4.898438 11.226562 4.9375 11.242188 4.984375 11.214844 C 5.03125 11.1875 5.070312 11.144531 5.070312 11.125 C 5.070312 11.101562 5.03125 11.085938 4.984375 11.085938 C 4.9375 11.085938 4.898438 11.125 4.898438 11.175781 M 11.515625 13.128906 C 11.515625 13.324219 11.554688 13.507812 11.605469 13.535156 C 11.660156 13.574219 11.671875 13.464844 11.632812 13.21875 C 11.558594 12.726562 11.515625 12.695312 11.515625 13.128906 M 11.945312 13.152344 C 11.980469 13.347656 12.058594 13.550781 12.117188 13.605469 C 12.203125 13.6875 12.203125 13.667969 12.121094 13.511719 C 12.066406 13.402344 12.042969 13.242188 12.070312 13.15625 C 12.097656 13.070312 12.066406 12.957031 12 12.902344 C 11.902344 12.820312 11.890625 12.859375 11.945312 13.152344 M 11.515625 14.34375 C 11.515625 14.441406 11.765625 14.539062 11.867188 14.476562 C 11.914062 14.449219 11.925781 14.390625 11.898438 14.34375 C 11.835938 14.242188 11.515625 14.242188 11.515625 14.34375 M 13.277344 14.523438 C 13.25 14.570312 13.265625 14.609375 13.316406 14.609375 C 13.367188 14.609375 13.40625 14.570312 13.40625 14.523438 C 13.40625 14.476562 13.390625 14.4375 13.367188 14.4375 C 13.347656 14.4375 13.304688 14.476562 13.277344 14.523438 M 13.234375 15.519531 C 13.234375 15.59375 13.28125 15.640625 13.335938 15.621094 C 13.496094 15.566406 13.523438 15.382812 13.371094 15.382812 C 13.296875 15.382812 13.234375 15.445312 13.234375 15.519531 M 12.683594 16.210938 C 12.636719 16.328125 12.648438 16.335938 12.757812 16.242188 C 12.910156 16.121094 12.925781 16.070312 12.8125 16.070312 C 12.773438 16.070312 12.710938 16.132812 12.683594 16.210938 M 11.992188 16.476562 C 11.945312 16.597656 11.957031 16.605469 12.042969 16.523438 C 12.101562 16.464844 12.128906 16.394531 12.101562 16.367188 C 12.074219 16.34375 12.027344 16.390625 11.992188 16.476562 M 11.257812 16.761719 C 11.257812 16.8125 11.296875 16.828125 11.34375 16.800781 C 11.390625 16.773438 11.429688 16.730469 11.429688 16.710938 C 11.429688 16.6875 11.390625 16.671875 11.34375 16.671875 C 11.296875 16.671875 11.257812 16.710938 11.257812 16.761719 M 15.222656 17.761719 C 15.207031 18.003906 15.332031 18.082031 15.472656 17.914062 C 15.558594 17.808594 15.554688 17.792969 15.445312 17.835938 C 15.359375 17.867188 15.296875 17.832031 15.269531 17.730469 C 15.238281 17.601562 15.230469 17.609375 15.222656 17.761719 M 6.152344 17.777344 C 6.113281 17.835938 6.109375 17.910156 6.136719 17.9375 C 6.210938 18.015625 6.296875 17.902344 6.253906 17.777344 C 6.226562 17.691406 6.207031 17.691406 6.152344 17.777344 M 6.574219 18.046875 C 6.601562 18.09375 6.644531 18.132812 6.664062 18.132812 C 6.6875 18.132812 6.703125 18.09375 6.703125 18.046875 C 6.703125 18 6.664062 17.960938 6.613281 17.960938 C 6.5625 17.960938 6.546875 18 6.574219 18.046875 M 7.046875 18.089844 C 7.046875 18.167969 7.089844 18.21875 7.140625 18.203125 C 7.191406 18.183594 7.230469 18.132812 7.230469 18.089844 C 7.230469 18.046875 7.191406 17.996094 7.140625 17.976562 C 7.089844 17.960938 7.046875 18.011719 7.046875 18.089844 M 7.476562 18.039062 C 7.476562 18.132812 7.742188 18.242188 7.808594 18.171875 C 7.835938 18.144531 7.800781 18.085938 7.730469 18.042969 C 7.570312 17.941406 7.476562 17.941406 7.476562 18.039062 M 15.511719 18.21875 C 15.40625 18.386719 15.382812 18.722656 15.46875 18.777344 C 15.515625 18.804688 15.554688 18.789062 15.554688 18.738281 C 15.554688 18.6875 15.652344 18.5625 15.769531 18.460938 C 15.929688 18.320312 15.957031 18.253906 15.878906 18.203125 C 15.726562 18.109375 15.574219 18.117188 15.511719 18.21875 M 15.886719 18.574219 C 15.789062 18.671875 15.734375 18.804688 15.761719 18.875 C 15.789062 18.949219 15.8125 19.054688 15.8125 19.113281 C 15.8125 19.171875 15.90625 19.269531 16.015625 19.332031 C 16.335938 19.5 16.585938 19.324219 16.585938 18.925781 C 16.585938 18.613281 16.582031 18.613281 16.453125 18.800781 C 16.378906 18.910156 16.285156 18.976562 16.242188 18.949219 C 16.203125 18.925781 16.152344 18.953125 16.132812 19.011719 C 16.109375 19.074219 16.058594 19.089844 16.019531 19.050781 C 15.976562 19.011719 16.007812 18.941406 16.089844 18.894531 C 16.171875 18.851562 16.277344 18.742188 16.324219 18.652344 C 16.453125 18.414062 16.109375 18.351562 15.886719 18.574219 M 18.023438 20.222656 C 17.789062 20.464844 17.777344 20.625 18 20.625 C 18.0625 20.625 18.15625 20.570312 18.214844 20.503906 C 18.296875 20.402344 18.28125 20.386719 18.117188 20.421875 L 17.917969 20.464844 L 18.117188 20.289062 C 18.230469 20.191406 18.308594 20.082031 18.289062 20.046875 C 18.273438 20.011719 18.15625 20.089844 18.023438 20.222656 M 19.179688 21.507812 C 18.992188 21.566406 18.914062 21.636719 18.945312 21.71875 C 18.972656 21.789062 18.992188 21.878906 18.992188 21.921875 C 18.992188 21.964844 19.070312 22 19.164062 22 C 19.359375 22 19.382812 21.910156 19.234375 21.757812 C 19.152344 21.679688 19.167969 21.65625 19.308594 21.65625 C 19.414062 21.65625 19.507812 21.726562 19.53125 21.828125 C 19.5625 21.945312 19.648438 22 19.800781 22 C 20.003906 22 20.015625 21.984375 19.917969 21.828125 C 19.859375 21.730469 19.757812 21.671875 19.699219 21.695312 C 19.628906 21.722656 19.597656 21.683594 19.613281 21.597656 C 19.644531 21.417969 19.53125 21.394531 19.179688 21.507812 "/>
</g>
</svg>
