<?xml version="1.0" encoding="UTF-8"?>
<svg xmlns="http://www.w3.org/2000/svg" xmlns:xlink="http://www.w3.org/1999/xlink" width="22px" height="22px" viewBox="0 0 22 22" version="1.1">
<g id="surface1">
<path style=" stroke:none;fill-rule:nonzero;fill:rgb(100%,63.137255%,5.882353%);fill-opacity:1;" d="M 22 11 C 22 17.074219 17.074219 22 11 22 C 4.925781 22 0 17.074219 0 11 C 0 4.925781 4.925781 0 11 0 C 17.074219 0 22 4.925781 22 11 Z M 22 11 "/>
<path style=" stroke:none;fill-rule:nonzero;fill:rgb(100%,100%,100%);fill-opacity:1;" d="M 4.753906 10.011719 C 4.753906 9.804688 4.917969 9.640625 5.121094 9.640625 C 5.226562 9.640625 5.304688 9.683594 5.367188 9.746094 L 5.367188 9.640625 C 5.367188 8.941406 5.925781 8.386719 6.625 8.386719 C 6.8125 8.386719 6.976562 8.425781 7.140625 8.488281 L 7.140625 8.386719 C 7.140625 7.335938 7.984375 6.492188 9.035156 6.492188 C 10.066406 6.492188 10.910156 7.335938 10.929688 8.363281 C 10.582031 8.671875 10.316406 9.042969 10.148438 9.476562 C 9.820312 9.269531 9.40625 9.144531 8.996094 9.144531 C 8.109375 9.144531 7.347656 9.640625 6.996094 10.402344 L 5.125 10.402344 C 4.914062 10.382812 4.753906 10.21875 4.753906 10.011719 Z M 14.695312 8.878906 C 14.222656 8.40625 13.585938 8.117188 12.863281 8.117188 C 11.566406 8.117188 10.472656 9.082031 10.308594 10.339844 C 9.980469 9.910156 9.464844 9.640625 8.890625 9.640625 C 7.921875 9.640625 7.121094 10.421875 7.121094 11.410156 C 7.121094 11.699219 7.183594 11.96875 7.304688 12.191406 C 6.6875 12.316406 6.234375 12.789062 6.234375 13.367188 C 6.234375 14.023438 6.851562 14.558594 7.613281 14.558594 C 7.941406 14.558594 8.253906 14.457031 8.5 14.273438 L 11.339844 11.492188 C 11.648438 11.207031 12.058594 11.039062 12.535156 11.039062 C 13.5 11.039062 14.261719 11.804688 14.304688 12.75 C 14.324219 13.035156 14.183594 13.304688 13.890625 13.46875 C 13.523438 13.695312 13.046875 13.570312 12.839844 13.222656 C 12.636719 12.851562 12.777344 12.398438 13.152344 12.171875 C 13.230469 12.128906 13.335938 12.089844 13.417969 12.066406 C 13.335938 12.046875 13.253906 12.046875 13.171875 12.046875 C 12.472656 12.046875 11.914062 12.601562 11.914062 13.304688 C 11.914062 14.003906 12.472656 14.558594 13.171875 14.558594 L 15.765625 14.558594 C 16.527344 14.519531 17.246094 13.839844 17.246094 12.972656 C 17.246094 12.109375 16.507812 11.390625 15.644531 11.390625 C 15.5 11.636719 15.332031 11.78125 15.128906 11.945312 C 15.332031 11.574219 15.457031 11.164062 15.457031 10.710938 C 15.457031 9.992188 15.171875 9.355469 14.695312 8.878906 Z M 14.695312 8.878906 "/>
</g>
</svg>
